<svg xmlns="http://www.w3.org/2000/svg" width="48.831" height="36.623" viewBox="0 0 48.831 36.623"><defs><style>.a{fill:#fbf6eb;}</style></defs><g transform="translate(0 0)"><path class="a" d="M198.1,400h-5.341a.763.763,0,0,0,0,1.526H198.1a.763.763,0,1,0,0-1.526Z" transform="translate(-173.688 -367.955)"/><path class="a" d="M111.021,80.008a3.044,3.044,0,0,1,2-.749H123.7a3.057,3.057,0,0,1,2.955,2.289H117.6a.763.763,0,0,0,0,1.526h9.06a3.056,3.056,0,0,1-2.956,2.289h-2.289a.763.763,0,1,0,0,1.526h3.815a4.6,4.6,0,0,1,4.531,3.923.763.763,0,1,0,1.511-.216,6.134,6.134,0,0,0-4.382-5l.051-.048a4.578,4.578,0,0,0-1.88-7.609,3.81,3.81,0,0,0-1.855-6.167,3.048,3.048,0,0,0-1.28-4.44A2.287,2.287,0,0,0,119.889,64h-3.052a2.287,2.287,0,0,0-2.037,3.331,3.048,3.048,0,0,0-1.28,4.44,3.81,3.81,0,0,0-1.854,6.168,4.566,4.566,0,0,0-1.648.918.763.763,0,0,0,1,1.15Zm5.816-14.482h3.052a.763.763,0,1,1,0,1.526h-3.052a.763.763,0,1,1,0-1.526Zm-.763,3.052h4.578a1.526,1.526,0,0,1,0,3.052h-4.578a1.526,1.526,0,1,1,0-3.052Zm-1.526,4.578h7.63a2.293,2.293,0,0,1,2.158,1.526h-7.5a.763.763,0,1,0,0,1.526h7.5a2.293,2.293,0,0,1-2.158,1.526h-7.63a2.289,2.289,0,0,1,0-4.578Z" transform="translate(-99.289 -64)"/><path class="a" d="M19.816,254.1a.763.763,0,0,0-.507-.9,13.091,13.091,0,0,0-5.487-.5,13.017,13.017,0,0,0-3.417-4.524.763.763,0,0,0-.977,0,12.922,12.922,0,0,0-3.456,4.62,13.085,13.085,0,0,0-5.447.505.763.763,0,0,0-.506.9c.042.178,1.007,4.2,3.541,5.936-1.312,2.548-.775,6.123-.749,6.292a.763.763,0,0,0,.753.645c.016,0,.033,0,.049,0,.178-.011,4.082-.286,6.262-2.309,2.18,2.023,6.084,2.3,6.262,2.309l.049,0a.763.763,0,0,0,.753-.645c.026-.166.567-3.777-.767-6.326C18.784,258.411,19.774,254.28,19.816,254.1ZM4.239,265.466c-.1-1.428-.025-3.885,1.077-5.251.823-1.02,2.029-2.01,3.364-1.464A3.5,3.5,0,0,0,8,260.468a4.707,4.707,0,0,0,.9,3.115A9,9,0,0,1,4.239,265.466Zm3.068-8.34a5.093,5.093,0,0,0-2.866,1.765c-1.5-1-2.368-3.2-2.733-4.334,1.4-.334,3.859-.657,5.4.2.976.546,2.016,1.4,2.047,2.54A3.517,3.517,0,0,0,7.307,257.126Zm.544-3.7q-.2-.112-.41-.2a10.74,10.74,0,0,1,2.48-3.431c1.066,1.027,2.765,3.04,2.765,4.819,0,1.86-.7,2.971-2.027,3.257l-.017-.017c.168-1.176-.15-2.945-2.791-4.423Zm7.657,12.041c-1.426-.209-3.83-.819-4.934-2.187a3.8,3.8,0,0,1-1.058-2.649,2,2,0,0,1,.44-1.041,3.6,3.6,0,0,0,2.2,1.471,3.889,3.889,0,0,0,.808.083,5.217,5.217,0,0,0,1.84-.366,9.313,9.313,0,0,1,.7,4.689Zm-.346-6.537c-1.1.615-2.512,1.074-3.537.233a3.747,3.747,0,0,0,1.339-.886,5.083,5.083,0,0,0,1.249-3.668c0-.143-.01-.285-.023-.426a10.9,10.9,0,0,1,3.937.273c-.385,1.191-1.326,3.557-2.965,4.474Z" transform="translate(0.002 -230.452)"/><path class="a" d="M384.763,126.867a.763.763,0,0,0,.763-.763v-5.341a.763.763,0,0,0-1.526,0V126.1A.763.763,0,0,0,384.763,126.867Z" transform="translate(-347.377 -114.659)"/><path class="a" d="M384.763,211.815a.763.763,0,0,0,.763-.763v-2.289a.763.763,0,1,0-1.526,0v2.289A.763.763,0,0,0,384.763,211.815Z" transform="translate(-347.377 -194.266)"/><path class="a" d="M352.763,191.63a.763.763,0,0,0,.763-.763v-6.1a.763.763,0,1,0-1.526,0v6.1A.763.763,0,0,0,352.763,191.63Z" transform="translate(-318.429 -172.555)"/><path class="a" d="M416.763,191.63a.763.763,0,0,0,.763-.763v-6.1a.763.763,0,1,0-1.526,0v6.1A.763.763,0,0,0,416.763,191.63Z" transform="translate(-376.325 -172.555)"/><ellipse class="a" cx="0.45" cy="0.45" rx="0.45" ry="0.45" transform="translate(33.231 9.173)"/><ellipse class="a" cx="0.899" cy="0.45" rx="0.899" ry="0.45" transform="translate(14.347 17.266)"/><ellipse class="a" cx="0.45" cy="0.45" rx="0.45" ry="0.45" transform="translate(40.425 9.173)"/><ellipse class="a" cx="0.45" cy="1.349" rx="0.45" ry="1.349" transform="translate(40.425 4.677)"/><ellipse class="a" cx="0.45" cy="1.349" rx="0.45" ry="1.349" transform="translate(33.231 4.677)"/><ellipse class="a" cx="0.899" cy="0.45" rx="0.899" ry="0.45" transform="translate(35.929 1.979)"/><path class="a" d="M294.126,273.918h-9.919V272.3a2.97,2.97,0,0,0,2.289-2.85c0-1.329-1.848-4.244-2.414-5.106a.763.763,0,0,0-1.275,0c-.566.862-2.414,3.777-2.414,5.106a2.97,2.97,0,0,0,2.289,2.85v1.619h-9.919a.763.763,0,0,0-.763.763,6.823,6.823,0,0,0,.771,3.155.762.762,0,0,0,.285.5,6.867,6.867,0,0,0,5.811,3.215h9.156a6.867,6.867,0,0,0,5.811-3.215.762.762,0,0,0,.285-.5,6.823,6.823,0,0,0,.771-3.155A.763.763,0,0,0,294.126,273.918Zm-12.208-4.469a11.2,11.2,0,0,1,1.526-3.252,11.187,11.187,0,0,1,1.526,3.252,1.53,1.53,0,0,1-3.052,0Zm10.928,7.521H280.393a.763.763,0,1,0,0,1.526h11.362a5.322,5.322,0,0,1-3.733,1.526h-9.156a5.322,5.322,0,0,1-3.733-1.526h2.207a.763.763,0,1,0,0-1.526h-3.3a5.3,5.3,0,0,1-.463-1.526h19.729A5.3,5.3,0,0,1,292.846,276.97Z" transform="translate(-246.059 -244.925)"/></g></svg>