<svg xmlns="http://www.w3.org/2000/svg" width="48.067" height="48.831" viewBox="0 0 48.067 48.831"><defs><style>.a{fill:#fbf6eb;}</style></defs><g transform="translate(0 0)"><path class="a" d="M258.679,21.7a9.086,9.086,0,0,0,6.476,2.71h0a9.087,9.087,0,0,0,6.476-2.711,9.259,9.259,0,0,0,2.677-6.53,7.3,7.3,0,0,0-.4-2.2,17.234,17.234,0,0,0-1-2.371,47.4,47.4,0,0,0-4.5-6.977C267,1.743,265.86.411,265.736.265l0,0a.763.763,0,0,0-1.156,0l0,0c-.227.265-2.283,2.674-4.341,5.653a.763.763,0,0,0,1.256.867c1.087-1.574,2.185-2.995,2.915-3.909.255-.32.508-.632.752-.928.824,1,2.429,3.008,3.958,5.263a35.565,35.565,0,0,1,2.581,4.36,9.054,9.054,0,0,1,1.091,3.6,7.713,7.713,0,0,1-2.237,5.458,7.571,7.571,0,0,1-10.785,0,7.711,7.711,0,0,1-2.237-5.458,8.447,8.447,0,0,1,.923-3.246.763.763,0,0,0-.376-1.011.748.748,0,0,0-.318-.07.763.763,0,0,0-.693.445A9.683,9.683,0,0,0,256,15.173a9.26,9.26,0,0,0,2.679,6.531Z" transform="translate(-231.585 0.002)"/><path class="a" d="M281.911,86.928a.763.763,0,1,0-.26-1.048h0A.764.764,0,0,0,281.911,86.928Z" transform="translate(-254.69 -77.356)"/><path class="a" d="M376.762,157.087a.759.759,0,0,0,.441-.141,6.226,6.226,0,0,0,2.61-5.072.763.763,0,0,0-1.526,0,4.7,4.7,0,0,1-1.968,3.828.763.763,0,0,0,.442,1.385Z" transform="translate(-340.139 -136.699)"/><ellipse class="a" cx="0.899" cy="0.899" rx="0.899" ry="0.899" transform="translate(33.069 19.542)"/><path class="a" d="M138.723,286.714l-6.681,1.484a.763.763,0,1,0,.331,1.49l6.867-1.526a.765.765,0,0,0,.331-.166l5.341-4.578q.022-.019.043-.04l3.052-3.052a.763.763,0,0,0,0-1.079,4,4,0,0,0-5.61-.047l-5.148,3.678-4.152.692c-1.441-.744-8.966-4.546-12.334-4.546a.763.763,0,1,0,0,1.526c2.721,0,9.478,3.241,11.852,4.49a.762.762,0,0,0,.481.077l4.578-.763a.763.763,0,0,0,.318-.132l5.341-3.815a.769.769,0,0,0,.1-.081,2.479,2.479,0,0,1,2.874-.454l-2.407,2.407Z" transform="translate(-108.555 -251.557)"/><path class="a" d="M366.411,377.322a5.166,5.166,0,0,0-5.7-2.742.763.763,0,1,0,.32,1.492,3.642,3.642,0,0,1,3.45,1.1l-11.893,2.8a.763.763,0,1,0,.35,1.485l12.971-3.052a.763.763,0,0,0,.508-1.084Z" transform="translate(-318.424 -338.751)"/><path class="a" d="M144.771,250.9a14.014,14.014,0,0,1,5.774,2.766c.559.457,1.566,1.227,3.08,2.352a.75.75,0,0,0,.454.151.763.763,0,0,0,.457-1.375c-1.015-.754-2.363-1.767-3.025-2.309a15.5,15.5,0,0,0-6.4-3.071.749.749,0,0,0-.173-.02.763.763,0,0,0-.171,1.507Z" transform="translate(-130.427 -225.605)"/><path class="a" d="M.77,248.5a.75.75,0,0,0,.237-.038l2.281-.746a24.291,24.291,0,0,1,5.227-1.012.763.763,0,1,0-.121-1.522,25.988,25.988,0,0,0-5.56,1.077l-2.3.753A.763.763,0,0,0,.77,248.5Z" transform="translate(-0.007 -221.8)"/><path class="a" d="M113.273,246.262l.049,0a.77.77,0,1,0-.049,0Z" transform="translate(-101.823 -221.384)"/><path class="a" d="M41.257,322.577l-2.1-.7a.763.763,0,1,0-.483,1.448l2.1.7a2.2,2.2,0,0,1,1.471,2.452l-15.133-4.843,7.538-3.426.043-.021,11.445-6.1a.763.763,0,0,0,.251-1.131,5.331,5.331,0,0,0-6.653-1.57.763.763,0,0,0,.682,1.365,3.807,3.807,0,0,1,4.118.461L34,316.828l-8.22,3.737h-4.24L5.669,313.009a.763.763,0,0,0-.328-.074H.763a.763.763,0,1,0,0,1.526H5.168l15.867,7.556a.763.763,0,0,0,.328.074h2.17l18.961,6.068a.763.763,0,0,0,.915-.386,3.722,3.722,0,0,0-2.152-5.2Z" transform="translate(0 -279.364)"/></g></svg>