<svg xmlns="http://www.w3.org/2000/svg" width="48.831" height="48.831" viewBox="0 0 48.831 48.831"><defs><style>.a{fill:#fbf6eb;}</style></defs><g transform="translate(0 0)"><path class="a" d="M207.452,68.807a11.583,11.583,0,0,0-7.575-7.41l-.006,0a3.454,3.454,0,0,1-1.73-1.5,4.647,4.647,0,0,1-.778-2.343V40.763A.762.762,0,0,0,196.6,40h-9.156a.762.762,0,0,0-.763.763V57.549a4.657,4.657,0,0,1-.778,2.343,3.454,3.454,0,0,1-1.73,1.5l-.006,0A11.584,11.584,0,0,0,176,72.47v.955a11.58,11.58,0,0,0,11.59,11.591h8.867a11.54,11.54,0,0,0,6.31-1.867.763.763,0,1,0-.832-1.279,10.036,10.036,0,0,1-5.479,1.62H187.59a10.065,10.065,0,0,1-10.064-10.063V72.47a10.016,10.016,0,0,1,7.092-9.615h0a4.073,4.073,0,0,0,1.456-.833,6.162,6.162,0,0,0,1.113-1.307,6.546,6.546,0,0,0,.952-2.4H189.7a6.82,6.82,0,0,1-.714,2.572.763.763,0,0,0,1.358.7,8.481,8.481,0,0,0,.886-3.268h1.577a9.459,9.459,0,0,0,2.331,6.1.763.763,0,1,0,1.113-1.044,7.934,7.934,0,0,1-1.916-5.06H195.9a6.55,6.55,0,0,0,.952,2.4,6.144,6.144,0,0,0,1.113,1.307,4.066,4.066,0,0,0,1.456.833h0a10.016,10.016,0,0,1,7.092,9.616v.955a9.99,9.99,0,0,1-.92,4.211.763.763,0,0,0,1.386.639,11.539,11.539,0,0,0,.786-2.33,11.669,11.669,0,0,0,.275-2.52V72.47a11.56,11.56,0,0,0-.593-3.663ZM195.837,51.822l-3.419-2.072a.763.763,0,1,0-.791,1.305l4.21,2.551v3.179h-7.63V53.142l4.087,2.476a.763.763,0,1,0,.791-1.305l-4.878-2.956V48.393h7.63Zm0-4.956h-7.63V41.526h1.526v3.191a.763.763,0,0,0,1.526,0V41.526h1.526v3.052a.763.763,0,1,0,1.526,0V41.526h1.526Z" transform="translate(-159.214 -36.185)"/><path class="a" d="M469.613,456.955a.762.762,0,1,0,.262.522A.762.762,0,0,0,469.613,456.955Z" transform="translate(-423.686 -413.207)"/><path class="a" d="M337.526,280.763a.763.763,0,1,0-1.526,0v3.711a.763.763,0,1,0,1.526,0Z" transform="translate(-303.955 -253.296)"/><path class="a" d="M252.9,279.569a13.916,13.916,0,0,1-3.876,2.219.763.763,0,0,0,.574,1.414,15.382,15.382,0,0,0,4.3-2.476.763.763,0,1,0-.994-1.158Z" transform="translate(-224.839 -252.739)"/><path class="a" d="M401.987,300.033a.763.763,0,1,0-.52,1.435,7.139,7.139,0,0,0,2.4.428.763.763,0,1,0,0-1.526A5.6,5.6,0,0,1,401.987,300.033Z" transform="translate(-362.723 -271.377)"/><ellipse class="a" cx="0.899" cy="0.899" rx="0.899" ry="0.899" transform="translate(32.373 33.575)"/><path class="a" d="M47.393,22.46a.763.763,0,1,0,1.372-.668,9.151,9.151,0,0,1-.841-3.481h1.57a6.537,6.537,0,0,0,.954,2.4,6.16,6.16,0,0,0,1.112,1.307,4.074,4.074,0,0,0,1.456.833h0a10.184,10.184,0,0,1,1,.368.763.763,0,0,0,.6-1.4,11.536,11.536,0,0,0-1.152-.424l-.006,0a3.456,3.456,0,0,1-1.729-1.5,4.65,4.65,0,0,1-.779-2.343V.763A.762.762,0,0,0,50.191,0H41.035a.762.762,0,0,0-.763.763V17.549a4.654,4.654,0,0,1-.778,2.343,3.454,3.454,0,0,1-1.73,1.5l-.006,0a11.567,11.567,0,0,0-4.842,2.947A.763.763,0,0,0,34,25.414a10.111,10.111,0,0,1,4.2-2.557h0a4.067,4.067,0,0,0,1.463-.835,6.167,6.167,0,0,0,1.113-1.307,6.545,6.545,0,0,0,.952-2.4h1.56a6.808,6.808,0,0,1-2.77,4.982.763.763,0,1,0,.938,1.2,8.243,8.243,0,0,0,3.365-6.186H46.4A10.7,10.7,0,0,0,47.393,22.46ZM41.8,1.526h1.526V4.717a.763.763,0,1,0,1.526,0V1.526h1.526V4.578a.763.763,0,0,0,1.526,0V1.526h1.526V6.867H41.8Zm0,15.26V13.142l4.087,2.476a.763.763,0,0,0,.791-1.305L41.8,11.358V8.393h7.63v3.43L46.008,9.751a.763.763,0,1,0-.791,1.305l4.21,2.551v3.179Z" transform="translate(-29.59 0)"/><ellipse class="a" cx="0.763" cy="0.763" rx="0.763" ry="0.763" transform="translate(15.345 43.49)"/><path class="a" d="M13.056,295.444H11.59A10.065,10.065,0,0,1,1.526,285.382v-.957a10.093,10.093,0,0,1,1.208-4.782.763.763,0,1,0-1.343-.725A11.56,11.56,0,0,0,0,284.425v.956a11.58,11.58,0,0,0,11.59,11.59h1.467a.763.763,0,1,0,0-1.526Z" transform="translate(0 -251.954)"/><path class="a" d="M160.763,245.237a.763.763,0,0,0,.763-.763v-3.711a.763.763,0,0,0-1.526,0v3.711A.763.763,0,0,0,160.763,245.237Z" transform="translate(-144.74 -217.111)"/><path class="a" d="M73.3,260.956a.761.761,0,0,0,.286-.056c.4-.162.784-.33,1.142-.5a.763.763,0,1,0-.65-1.381c-.333.157-.692.313-1.065.465a.763.763,0,0,0,.287,1.47Z" transform="translate(-65.62 -234.251)"/></g></svg>