<svg xmlns="http://www.w3.org/2000/svg" width="48.831" height="42.726" viewBox="0 0 48.831 42.726"><defs><style>.a{fill:#877a61;}</style></defs><g transform="translate(0 0)"><path class="a" d="M25.178,203.467h-14.5v-1.526h2.289a.763.763,0,1,0,0-1.526H10.112a12.188,12.188,0,0,1-1.288-.856,17.308,17.308,0,0,1-3-2.9,20.129,20.129,0,0,1-4.3-13.026v-4.578a1.532,1.532,0,0,1,1.526-1.526H5.329a.763.763,0,0,0,0-1.526H3.052A3.054,3.054,0,0,0,0,179.052v4.578a23.718,23.718,0,0,0,1.481,8.485,19.887,19.887,0,0,0,3.272,5.639,17.719,17.719,0,0,0,4.4,3.869v2.607a.763.763,0,0,0,.763.763h15.26a.763.763,0,1,0,0-1.526Z" transform="translate(0 -162.267)"/><path class="a" d="M304.97,44.064,314,37.289a.763.763,0,0,0,.082-1.149,1.526,1.526,0,1,1,2.157-2.158l5.4,5.4a1.526,1.526,0,1,1-2.159,2.157l-2.7-2.7a.763.763,0,0,0-1.079,1.079l2.23,2.23-.849,1.132a.763.763,0,0,0,1.221.916l.793-1.057a3.052,3.052,0,0,0,3.619-4.839l-5.395-5.4a3.053,3.053,0,0,0-4.839,3.619l-8.428,6.321a.763.763,0,0,0,.916,1.221Z" transform="translate(-274.78 -32.01)"/><path class="a" d="M440.307,337.975a.763.763,0,1,0-.539-.223A.763.763,0,0,0,440.307,337.975Z" transform="translate(-397.624 -307.414)"/><path class="a" d="M257.9,280c-.429.024-10.548.628-14.966,5.045q-.225.224-.433.449c-3.936-2.1-9.451-2.428-9.7-2.442a.763.763,0,0,0-.8.8c.019.347.5,8.548,4.053,12.143a8.065,8.065,0,0,0,5.831,2.194,10.772,10.772,0,0,0,1.743-.139,6.59,6.59,0,0,0,3.461,1.02l.143,0c2.122-.049,4.284-1.16,6.426-3.3,4.417-4.417,5.021-14.537,5.045-14.966a.763.763,0,0,0-.8-.8Zm-20.759,14.926c-2.517-2.548-3.318-8.113-3.54-10.273a25.188,25.188,0,0,1,7.893,2.039,8.312,8.312,0,0,0-1.862,4.779,7.17,7.17,0,0,0,2.27,5.192A6.6,6.6,0,0,1,237.141,294.926Zm15.439-.236c-1.855,1.855-3.666,2.816-5.382,2.856a5.343,5.343,0,0,1-3.585-1.377l7.326-7.326a.763.763,0,0,0-1.08-1.08l-7.326,7.327a5.337,5.337,0,0,1-1.376-3.585c.04-1.716,1-3.527,2.856-5.382,3.3-3.3,10.576-4.281,13.094-4.528-.247,2.518-1.229,9.8-4.528,13.094Z" transform="translate(-209.874 -256.348)"/><path class="a" d="M112.643,177.526h29.768a1.532,1.532,0,0,1,1.526,1.526v1.526H126.388a.763.763,0,1,0,0,1.526h17.549v1.526c0,.07,0,.135,0,.2s0,.114,0,.167,0,.11,0,.161v.022a.763.763,0,1,0,1.526.021h0c0-.062,0-.129,0-.2s0-.135,0-.2,0-.114,0-.169v-4.578A3.054,3.054,0,0,0,142.411,176H112.643a.763.763,0,0,0,0,1.526Z" transform="translate(-101.21 -162.267)"/><ellipse class="a" cx="0.763" cy="0.763" rx="0.763" ry="0.763" transform="translate(7.618 13.733)"/><path class="a" d="M160,432.763a.763.763,0,0,0,.763.763h6.1a.763.763,0,0,0,0-1.526h-6.1A.763.763,0,0,0,160,432.763Z" transform="translate(-144.74 -393.852)"/></g></svg>