<svg xmlns="http://www.w3.org/2000/svg" width="58.271" height="60.404" viewBox="0 0 58.271 60.404"><defs><style>.a{fill:#877a61;}</style></defs><g transform="translate(0)"><path class="a" d="M53.92,43.319c-1.7-2.631-3.585-6.391-3.585-10.1V23.367a19.334,19.334,0,0,0,1.007-6.253,1.007,1.007,0,0,0-1.007-1.007,19.758,19.758,0,0,1-3.546-.906,21.864,21.864,0,0,1-5.436-6.261,30.757,30.757,0,0,0,.928-7.934,1.007,1.007,0,1,0-2.013,0,30.022,30.022,0,0,1-.773,7.069c-6.257.262-9.054,3.659-10.3,6.622-1.246-2.964-4.044-6.361-10.3-6.623a30.022,30.022,0,0,1-.773-7.068,1.007,1.007,0,0,0-2.013,0,30.757,30.757,0,0,0,.93,7.938A21.877,21.877,0,0,1,11.6,15.205a19.715,19.715,0,0,1-3.548.9,1.007,1.007,0,0,0-1.007,1.007,19.335,19.335,0,0,0,1.007,6.253v9.855c0,3.708-1.888,7.468-3.585,10.1a5.034,5.034,0,0,0,.979,10.016,5.05,5.05,0,0,0,5.57,2.94A5.014,5.014,0,0,0,16.9,58.052a5.021,5.021,0,0,0,9.272-2.683V37.248a19.46,19.46,0,0,1,.272-3.04,1.989,1.989,0,0,0,1.789-1.792,10.019,10.019,0,0,1,.959-3.523,10.019,10.019,0,0,1,.959,3.523,1.989,1.989,0,0,0,1.789,1.792,19.46,19.46,0,0,1,.272,3.04V55.369a5.021,5.021,0,0,0,9.272,2.687,5.014,5.014,0,0,0,5.885-1.781,5.053,5.053,0,0,0,5.57-2.944,5.034,5.034,0,0,0,.979-10.016Zm-1.594,1.231A2.306,2.306,0,0,1,50,46.781a2.09,2.09,0,0,1-.618-.116,1.007,1.007,0,0,0-1.288.774A2.484,2.484,0,0,1,45.8,49.6a2.06,2.06,0,0,1-.79-.174,1.007,1.007,0,0,0-1.309.528,2.372,2.372,0,0,1-2.1,1.519,2.037,2.037,0,0,1-1.256-.434,1.007,1.007,0,0,0-1.575.493,2.391,2.391,0,0,1-2.2,1.823,2.574,2.574,0,0,1-2.346-2.748V37.248a21.2,21.2,0,0,0-.244-3.02h.2A2.022,2.022,0,0,0,36.2,32.034a10.141,10.141,0,0,0-2.99-6.619c.007-.083.02-.162.02-.248v-.805a14.5,14.5,0,0,0,5.034.805,65.361,65.361,0,0,0,10.067-.814v8.868c-.008,3.456,1.346,7.267,4,11.329Zm-28.166-7.3V50.607a2.574,2.574,0,0,1-2.346,2.748,2.391,2.391,0,0,1-2.2-1.823,1.007,1.007,0,0,0-1.575-.493,2.037,2.037,0,0,1-1.256.434,2.372,2.372,0,0,1-2.1-1.519,1.007,1.007,0,0,0-1.309-.528,2.06,2.06,0,0,1-.79.174,2.484,2.484,0,0,1-2.292-2.16,1.007,1.007,0,0,0-1.288-.774,2.09,2.09,0,0,1-.618.116,2.306,2.306,0,0,1-2.323-2.231,31.214,31.214,0,0,0,2.013-3.568c.008-.018.017-.033.024-.051a18.084,18.084,0,0,0,1.965-7.71V24.353a65.361,65.361,0,0,0,10.067.814,14.5,14.5,0,0,0,5.034-.805v.805c0,.087.013.165.019.249A10.138,10.138,0,0,0,22.2,32.034a2.022,2.022,0,0,0,2.013,2.194h.2a21.2,21.2,0,0,0-.252,3.02Zm.042-5.041a8.365,8.365,0,0,1,1.913-4.846,2.981,2.981,0,0,0,1.24.7,11.959,11.959,0,0,0-1.123,4.149Zm3.985-6.033a1.029,1.029,0,0,1-.968-.732.805.805,0,0,1-.038-.275v-1.8a7.6,7.6,0,0,0,2.013-1.949,7.6,7.6,0,0,0,2.013,1.949v1.8a.857.857,0,0,1-.051.313,1.015,1.015,0,0,1-.955.694Zm4.086,1.191a8.356,8.356,0,0,1,1.907,4.849l-2.022.009a11.988,11.988,0,0,0-1.128-4.158,3.011,3.011,0,0,0,1.243-.7Zm16.343-5.1c-.787.137-2.424.4-4.538.6a11.476,11.476,0,0,0,3.007-5.452c.667.2,1.5.437,2.215.58A16.5,16.5,0,0,1,48.616,22.261ZM39.677,10.08a23.758,23.758,0,0,0,5.537,6.456c-.347,1.685-1.8,6.618-6.959,6.618-6.56,0-7.869-3.512-8.054-4.144.036-1.081.591-8.613,9.476-8.933Zm-20.966,0c8.842.32,9.434,7.852,9.473,8.934-.184.635-1.5,4.14-8.051,4.14-5.134,0-6.6-4.933-6.957-6.623a23.78,23.78,0,0,0,5.535-6.453ZM11.3,17.411a11.476,11.476,0,0,0,3.007,5.452c-2.114-.2-3.751-.463-4.538-.6a16.5,16.5,0,0,1-.688-4.272c.716-.141,1.551-.377,2.219-.578ZM21.14,58.389a3.02,3.02,0,0,1-2.836-2.03,1.007,1.007,0,0,0-1.51-.5,3,3,0,0,1-4.4-1.192,1.007,1.007,0,0,0-1.263-.5,2.992,2.992,0,0,1-4.015-2.187,1.007,1.007,0,0,0-1.26-.76,2.976,2.976,0,0,1-.82.128,3.011,3.011,0,0,1-.859-5.9,4.259,4.259,0,0,0,4.211,3.353,2.137,2.137,0,0,0,.214-.007,4.284,4.284,0,0,0,4.674,2.76,4.282,4.282,0,0,0,3.507,1.938,4.027,4.027,0,0,0,1.409-.252,4.277,4.277,0,0,0,3.624,2.134,4.067,4.067,0,0,0,2.346-.761v.761A3.02,3.02,0,0,1,21.14,58.389Zm32.215-7.047a2.976,2.976,0,0,1-.82-.132,1.007,1.007,0,0,0-1.26.76,2.991,2.991,0,0,1-4.015,2.191,1.007,1.007,0,0,0-1.263.5,3,3,0,0,1-4.4,1.2,1.007,1.007,0,0,0-1.51.5,3.01,3.01,0,0,1-5.86-1v-.761a4.067,4.067,0,0,0,2.346.761A4.277,4.277,0,0,0,40.2,53.234a4.027,4.027,0,0,0,1.409.252,4.282,4.282,0,0,0,3.507-1.938,4.279,4.279,0,0,0,4.674-2.76c.069.005.141.007.214.007a4.259,4.259,0,0,0,4.211-3.353,3.011,3.011,0,0,1-.859,5.9Z" transform="translate(-0.059)"/></g></svg>