<svg xmlns="http://www.w3.org/2000/svg" width="55.612" height="49.321" viewBox="0 0 55.612 49.321"><defs><style>.a{fill:#fff;}</style></defs><g transform="translate(0 0)"><path class="a" d="M55.441,43.265c-9.626-12.343-9.216-12.034-9.73-12.084l-15.069-2.03a26.1,26.1,0,0,0-7.7.273.808.808,0,1,0,.216,1.6,24.751,24.751,0,0,1,7.265-.273l10.348,1.394L27.806,34.789,14.837,32.146l4.483-.6a.808.808,0,1,0-.216-1.6l-9.2,1.24h0l-.012,0-.037.007-.024,0-.02,0-.027.007-.042.012-.017.006-.007,0-.024.009-.043.019-.018.009-.02.01-.019.011c-.351.2-.18.219-9.416,11.979a.808.808,0,0,0-.085.86c.325.645-.54-.628,17.29,23.038a.808.808,0,1,0,1.29-.973L3.006,45.434,15.66,49.42l9.744,25.7-4.459-5.91a.808.808,0,1,0-1.29.973c4.669,6.187,5.15,6.828,5.183,6.866a3.838,3.838,0,0,0,2.186,1.217c.115.02,1.469.019,1.582,0A3.81,3.81,0,0,0,30.814,77l15.77-20.9a.808.808,0,1,0-1.29-.973l-15.087,20,9.744-25.7,12.654-3.986-5.041,6.681a.808.808,0,1,0,1.29.973c6.767-8.978,6.4-8.433,6.67-8.961A.808.808,0,0,0,55.441,43.265ZM27.806,36.839l9.747,11.12H18.059ZM2.078,43.448l7.665-9.829,5.2,13.88Zm9.183-10.381,15.02,3.061L16.559,47.219ZM27.9,76.663h-.178L17.447,49.575H38.165ZM39.053,47.218,29.331,36.128l15.02-3.061Zm1.62.28,5.2-13.88,7.665,9.829Z" transform="translate(0 -28.96)"/></g></svg>