<svg xmlns="http://www.w3.org/2000/svg" width="115.412" height="41.591" viewBox="0 0 115.412 41.591"><g transform="translate(-52.479 -109.569)"><g transform="translate(85.743 125.004)"><rect width="2.874" height="13.83"/></g><g transform="translate(52.479 109.569)"><path d="M73.732,137.376a14.681,14.681,0,1,1,6.554-19.7l.608,1.216-17.719,8.872-1.217-2.43,15.22-7.621a11.956,11.956,0,1,0,1.854,5.046l2.7-.339A14.706,14.706,0,0,1,73.732,137.376Z" transform="translate(-52.479 -109.569)"/></g><g transform="translate(85.743 109.709)"><path d="M106.8,125.387h-2.874a15.617,15.617,0,0,1,15.6-15.6v2.874A12.741,12.741,0,0,0,106.8,125.387Z" transform="translate(-103.928 -109.786)"/></g><g transform="translate(138.887 109.75)"><g transform="translate(26.487 6.347)"><path d="M229.609,127.821v14.434h-2.518V119.666A14.423,14.423,0,0,1,229.609,127.821Z" transform="translate(-227.091 -119.666)"/></g><path d="M212.611,116.2a14.457,14.457,0,1,0,2.518,8.155A14.494,14.494,0,0,0,212.611,116.2Zm-11.985,20.19a12.038,12.038,0,1,1,11.985-13.115c.032.358.05.716.05,1.08s-.019.722-.05,1.08A12.048,12.048,0,0,1,200.626,136.387Z" transform="translate(-186.124 -109.849)"/></g><path d="M147.9,138.738a14.68,14.68,0,0,0,8.3-2.437v-3.764a12.2,12.2,0,0,1-20.508-8.917V109.826H132.78v13.793A15.109,15.109,0,0,0,147.9,138.738Z" transform="translate(-28.383 -0.091)"/><path d="M160.258,109.826v10.337h.014v16.168h-.023a12.185,12.185,0,0,1-12.2,12.01,13.7,13.7,0,0,1-6.633-1.475A14.8,14.8,0,0,1,136,141.229l-.3-.5-2.5,1.5.29.492a17.442,17.442,0,0,0,6.524,6.7,16.694,16.694,0,0,0,8.03,1.826,15.059,15.059,0,0,0,15.118-15.118V109.826Z" transform="translate(-28.533 -0.091)"/></g></svg>