<svg xmlns="http://www.w3.org/2000/svg" width="60.402" height="49.334" viewBox="0 0 60.402 49.334"><defs><style>.a{fill:#877a61;}</style></defs><g transform="translate(0 0)"><path class="a" d="M57.979,38.134c-1.436-.264-1.591-.868-1.6-.942a.89.89,0,0,0-.034-.138,14.585,14.585,0,0,0-5.044-10.4A89.431,89.431,0,0,0,46.1,2.9,3.02,3.02,0,0,0,40.268,4.02c0,.147.01,14.472.851,24.481-.159.079-.317.154-.476.234-6.321,3.171-7.96,12.538-8.327,15.554H28.087c-.369-3.015-2.013-12.382-8.329-15.554-.159-.08-.317-.155-.476-.234.843-10.009.853-24.334.853-24.481A3.02,3.02,0,0,0,14.3,2.936a89.45,89.45,0,0,0-5.19,23.716A14.583,14.583,0,0,0,4.063,37.021a.939.939,0,0,0-.036.164c0,.028-.107.674-1.6.949A2.988,2.988,0,0,0,0,41.093v6.215a3.02,3.02,0,0,0,3.02,3.02H15.1c.028,0,.052-.014.081-.016.132,0,.259.016.394.016A20.927,20.927,0,0,0,27.525,46.3h5.352a20.927,20.927,0,0,0,11.951,4.027c.135,0,.262-.013.394-.016.028,0,.052.016.081.016h12.08a3.02,3.02,0,0,0,3.02-3.02V41.093A2.988,2.988,0,0,0,57.979,38.134ZM44.828,48.315A17.928,17.928,0,0,1,37.5,46.654c.631-3.567,2.46-10.524,7.368-13.009,2.8-1.409,4.548-2.281,7.682-2.416a12.764,12.764,0,0,1,1.812,6.644C54.362,44.51,50.887,48.315,44.828,48.315ZM42.915,3.082a.985.985,0,0,1,.765.011,1.017,1.017,0,0,1,.552.58,87.117,87.117,0,0,1,5,22.533,18.979,18.979,0,0,0-2.085.217,86.918,86.918,0,0,0-4.8-22.047.925.925,0,0,1-.059-.356,1.007,1.007,0,0,1,.637-.938Zm-.558,8a91.781,91.781,0,0,1,2.811,15.791,19.486,19.486,0,0,0-2.1.743c-.419-5.336-.614-11.741-.706-16.534ZM15.234,26.872a91.82,91.82,0,0,1,2.807-15.788c-.092,4.793-.287,11.2-.7,16.531a19.486,19.486,0,0,0-2.1-.743Zm.942-23.222a1,1,0,0,1,.542-.554.987.987,0,0,1,.773-.008,1.007,1.007,0,0,1,.629.931.936.936,0,0,1-.068.369,86.955,86.955,0,0,0-4.8,22.034,18.979,18.979,0,0,0-2.085-.217A87.113,87.113,0,0,1,16.177,3.647Zm-.6,44.664c-6.059,0-9.534-3.805-9.534-10.442a12.774,12.774,0,0,1,1.8-6.644c3.145.131,4.9,1,7.745,2.437,4.862,2.462,6.689,9.418,7.32,12.986a17.928,17.928,0,0,1-7.328,1.662Zm-12.555,0a1.007,1.007,0,0,1-1.007-1.007V41.093a.988.988,0,0,1,.774-.979,5.727,5.727,0,0,0,1.34-.408c.363,3.868,1.913,6.813,4.447,8.608ZM24.77,45.7c-.791-4.042-2.913-11.1-8.327-13.844A19.908,19.908,0,0,0,9.237,29.33a10.872,10.872,0,0,1,1.172-1.149,16.472,16.472,0,0,1,7.339,1.812c.358.168.726.347,1.107.538,5.59,2.8,6.995,11.97,7.264,14.3C25.821,45.043,25.359,45.35,24.77,45.7ZM41.545,30.535c.382-.19.748-.369,1.107-.538a16.463,16.463,0,0,1,7.34-1.816,11.108,11.108,0,0,1,1.162,1.142,20.086,20.086,0,0,0-7.243,2.549c-5.371,2.718-7.487,9.777-8.278,13.819-.589-.342-1.051-.649-1.352-.863C34.55,42.5,35.954,33.337,41.545,30.535ZM58.389,47.308a1.007,1.007,0,0,1-1.007,1.007H51.828c2.532-1.795,4.083-4.741,4.452-8.608a5.721,5.721,0,0,0,1.336.408.989.989,0,0,1,.773.979Z" transform="translate(0 -0.995)"/></g></svg>