<svg xmlns="http://www.w3.org/2000/svg" width="310.813" height="69.674" viewBox="0 0 310.813 69.674">
  <g id="Group_367" data-name="Group 367" transform="translate(0)">
    <g id="Group_369" data-name="Group 369" transform="translate(56.275 22.634)">
      <path id="Path_402" data-name="Path 402" d="M231.929,116.149h.822c.512,0,.766.212.766.624a.537.537,0,0,1-.166.438.8.8,0,0,1-.4.162l.629.965h-.357l-.592-.941h-.357v.941h-.331Zm.329.978h.561a.747.747,0,0,0,.187-.043.286.286,0,0,0,.125-.111.353.353,0,0,0,.053-.207.367.367,0,0,0-.045-.179.325.325,0,0,0-.115-.1.516.516,0,0,0-.158-.043,1.184,1.184,0,0,0-.17,0h-.438Z" transform="translate(-230.427 -82.371)" fill="#48a0da"/>
      <path id="Path_403" data-name="Path 403" d="M233.41,120.037a2.216,2.216,0,1,1,2.221-2.216,2.216,2.216,0,0,1-2.221,2.216m0-4.059a1.843,1.843,0,1,0,1.847,1.843,1.844,1.844,0,0,0-1.847-1.843Z" transform="translate(-231.198 -82.946)" fill="#48a0da"/>
      <path id="Path_404" data-name="Path 404" d="M257.685,120.774c-1.043,1.405-2.851,3.336-5.1,3.336h-5.028a5.038,5.038,0,0,1-2.494-.723,13.349,13.349,0,0,1-2.935-2.855,4.073,4.073,0,0,1-.643-2.29V105.576a3.971,3.971,0,0,1,.643-2.251,14.5,14.5,0,0,1,2.935-2.9,5.513,5.513,0,0,1,2.494-.723h5.028c2.251,0,4.059,1.986,5.1,3.336a13.425,13.425,0,0,1,.846,1.411l-4.1,1.163a11.415,11.415,0,0,0-1.808-1.851.255.255,0,0,0-.162-.039h-4.743a.409.409,0,0,0-.162.039,6.338,6.338,0,0,0-1.812,1.773,1.66,1.66,0,0,0-.039.44V118.2c0,.485,1.247,1.53,1.851,1.851.039.039.242.039.281.039h4.583a.433.433,0,0,0,.2-.039,6.461,6.461,0,0,0,1.808-1.89l4.1,1.085a7.5,7.5,0,0,1-.846,1.528" transform="translate(-220.358 -99.705)" fill="#12181f"/>
      <rect id="Rectangle_1510" data-name="Rectangle 1510" width="4.944" height="5.068" transform="translate(41.873 19.14)" fill="#12181f"/>
      <path id="Path_405" data-name="Path 405" d="M269.032,123.83V113.9h-8.765v9.928h-4.221V99.783h4.221v10.1h8.765v-10.1h4.221V123.83Z" transform="translate(-205.006 -99.623)" fill="#12181f"/>
      <rect id="Rectangle_1511" data-name="Rectangle 1511" width="4.948" height="5.068" transform="translate(72.469 19.14)" fill="#12181f"/>
      <path id="Path_406" data-name="Path 406" d="M291.73,111.323a13.852,13.852,0,0,1-2.167,2.153,3.833,3.833,0,0,1-1.046.561l4.766,9.813h-4.57l-4.464-9.492h-4.616v9.492H275.4V99.783h11.3a5.2,5.2,0,0,1,2.859.885,14.09,14.09,0,0,1,2.171,2.212,4.482,4.482,0,0,1,.723,2.453v3.535a4.394,4.394,0,0,1-.727,2.455m-3.5-5.957a.923.923,0,0,0-.039-.281c-.242-.446-.887-1.247-1.288-1.288h-7.272v6.514h7.07c.359,0,1.167-.766,1.489-1.327a.4.4,0,0,0,.039-.162Z" transform="translate(-184.6 -99.623)" fill="#12181f"/>
      <path id="Path_407" data-name="Path 407" d="M303.624,120.492a15.253,15.253,0,0,1-2.933,2.894,5.165,5.165,0,0,1-2.494.723h-6.109a5.023,5.023,0,0,1-2.494-.723,14.178,14.178,0,0,1-2.935-2.894,4.043,4.043,0,0,1-.643-2.292V105.616a4.043,4.043,0,0,1,.643-2.292,14.229,14.229,0,0,1,2.935-2.894,5.023,5.023,0,0,1,2.494-.723H298.2a5.165,5.165,0,0,1,2.494.723,15.312,15.312,0,0,1,2.933,2.894,4.045,4.045,0,0,1,.645,2.292V118.2a4.045,4.045,0,0,1-.645,2.292m-13.387-2.331s0,.119.039.158a6.392,6.392,0,0,0,1.769,1.732.453.453,0,0,0,.2.041h5.791a.557.557,0,0,0,.2-.041,6.4,6.4,0,0,0,1.771-1.732.384.384,0,0,0,.041-.158V105.735s0-.16-.041-.2a6.66,6.66,0,0,0-1.771-1.771.439.439,0,0,0-.2-.041h-5.791s-.158,0-.2.041a6.684,6.684,0,0,0-1.752,1.771.509.509,0,0,0-.039.2Z" transform="translate(-173.415 -99.704)" fill="#12181f"/>
      <path id="Path_408" data-name="Path 408" d="M313.753,120.772a13.421,13.421,0,0,1-2.134,2.171,5.317,5.317,0,0,1-2.894.887h-11.3V99.783h11.3a5.167,5.167,0,0,1,2.9.924,13.437,13.437,0,0,1,2.134,2.173,4.453,4.453,0,0,1,.682,2.494v2.974a4.39,4.39,0,0,1-1.588,3.5,4.363,4.363,0,0,1,1.588,3.457v3.057a4.322,4.322,0,0,1-.686,2.412m-3.539-12.5v-2.857a.852.852,0,0,0-.039-.2c-.362-.643-1.128-1.407-1.489-1.407h-7.037v6.074h7.076c.361,0,1.167-.727,1.45-1.331a.71.71,0,0,0,.039-.277m0,9.928v-2.855a.514.514,0,0,0-.039-.2c-.362-.643-1.128-1.366-1.489-1.366h-7.037v6.029h7.076c.361,0,1.167-.723,1.45-1.327a1,1,0,0,0,.039-.281" transform="translate(-161.387 -99.623)" fill="#12181f"/>
      <rect id="Rectangle_1512" data-name="Rectangle 1512" width="4.221" height="24.048" transform="translate(158.76 0.16)" fill="#12181f"/>
      <path id="Path_409" data-name="Path 409" d="M326.1,123.83l-8.34-15.965V123.83h-4.207V99.783H318.1l8.245,16.164V99.783h4.221V123.83Z" transform="translate(-144.384 -99.623)" fill="#12181f"/>
      <path id="Path_410" data-name="Path 410" d="M342.263,120.492a13.45,13.45,0,0,1-2.935,2.894,5.607,5.607,0,0,1-2.494.723H329.84c-2.383,0-4.063-1.929-5.107-3.336a8.381,8.381,0,0,1-.723-1.247l3.973-1.325a9.837,9.837,0,0,0,1.764,1.849.71.71,0,0,0,.283.041h6.6a.557.557,0,0,0,.238-.041c.6-.32,1.812-1.528,1.812-1.849v-2.385a.721.721,0,0,0-.485-.682l-10.451-2.978a4.456,4.456,0,0,1-3.139-4.369v-2.171a4.185,4.185,0,0,1,.6-2.292,13.677,13.677,0,0,1,2.978-2.894,5.446,5.446,0,0,1,2.49-.723h5.957c2.412,0,4.059,1.984,5.1,3.336a7.849,7.849,0,0,1,.793,1.409l-4.047,1.165a8.125,8.125,0,0,0-1.766-1.851s-.039-.041-.242-.041H330.8a.59.59,0,0,0-.244.041c-.641.32-1.73,1.448-1.73,1.771v2.009a.7.7,0,0,0,.442.684l10.492,3.057a4.487,4.487,0,0,1,3.137,4.369v2.535a3.9,3.9,0,0,1-.639,2.3" transform="translate(-133.363 -99.704)" fill="#12181f"/>
      <path id="Path_411" data-name="Path 411" d="M353.034,120.492a15.442,15.442,0,0,1-2.935,2.894,5.153,5.153,0,0,1-2.494.723h-6.111a5.017,5.017,0,0,1-2.494-.723,14.379,14.379,0,0,1-2.935-2.894,4.074,4.074,0,0,1-.643-2.292V105.616a4.074,4.074,0,0,1,.643-2.292A14.431,14.431,0,0,1,339,100.429a5.016,5.016,0,0,1,2.494-.723H347.6a5.166,5.166,0,0,1,2.5.723,15.551,15.551,0,0,1,2.933,2.894,4.075,4.075,0,0,1,.643,2.292V118.2a4.075,4.075,0,0,1-.643,2.292m-13.391-2.331s0,.119.039.158a6.438,6.438,0,0,0,1.773,1.732.436.436,0,0,0,.2.041h5.774a.529.529,0,0,0,.2-.041,6.4,6.4,0,0,0,1.783-1.728.349.349,0,0,0,.043-.158V105.735s0-.16-.043-.2a6.675,6.675,0,0,0-1.767-1.771.435.435,0,0,0-.2-.041h-5.791s-.158,0-.2.041a6.73,6.73,0,0,0-1.773,1.771.547.547,0,0,0-.039.2Z" transform="translate(-121.336 -99.704)" fill="#12181f"/>
      <path id="Path_412" data-name="Path 412" d="M359.379,123.83l-8.34-15.965V123.83h-4.207V99.783h4.544l8.245,16.164V99.783h4.221V123.83Z" transform="translate(-109.306 -99.623)" fill="#12181f"/>
    </g>
    <g id="Group_370" data-name="Group 370">
      <path id="Path_415" data-name="Path 415" d="M215.375,100.878l6.489-3.749V112.74l1.481.855,1.483-.855V97.129l6.491,3.749,1.483-2.57-9.457-5.456-9.455,5.456Z" transform="translate(-193.167 -84.294)" fill="#48a0da"/>
      <path id="Path_416" data-name="Path 416" d="M218.35,120.7l-6.489-3.745,13.518-7.8v-1.713l-1.485-.857-13.514,7.8v-7.493h-2.966V117.8l9.455,5.462Z" transform="translate(-199.994 -69.827)" fill="#48a0da"/>
      <path id="Path_417" data-name="Path 417" d="M233.983,88.686,203.8,106.113v34.828l30.181,17.419,30.183-17.419V106.113Zm27.2,50.544-27.2,15.73-27.211-15.73V107.816l27.211-15.71,27.2,15.71Z" transform="translate(-203.802 -88.686)" fill="#48a0da"/>
      <path id="Path_418" data-name="Path 418" d="M242,99.161l6.489,3.745-18.312,10.577L211.86,102.905l6.491-3.745-1.481-2.57-9.457,5.462v10.916h2.966v-7.493l18.312,10.573v21.147l-6.489-3.749-1.485,2.57,9.455,5.456,9.457-5.456-1.483-2.57-6.493,3.749V116.047l18.317-10.573v7.493h2.964V102.053l-9.457-5.462Z" transform="translate(-199.995 -80.353)" fill="#48a0da"/>
      <path id="Path_419" data-name="Path 419" d="M235.829,106.887v7.493l-13.518-7.8-1.481.854v1.715l13.514,7.8-6.489,3.745,1.481,2.57,9.455-5.46V106.887Z" transform="translate(-185.852 -69.827)" fill="#48a0da"/>
    </g>
  </g>
</svg>
