<svg xmlns="http://www.w3.org/2000/svg" width="239.012" height="45" viewBox="0 0 239.012 45">
  <g id="Group_320" data-name="Group 320" transform="translate(18619.012 17253.277)">
    <g id="Group_321" data-name="Group 321" transform="translate(-18619.012 -17251.322)">
      <path id="Path_373" data-name="Path 373" d="M29.91,0,28.057,1.07V23.042l1.853,1.07,1.853-1.07V5.348l12.312,7.109V28.812L29.909,36.99,15.745,28.812V12.456l8.607-4.969V3.208L12.04,10.317V30.951L29.91,41.268,47.778,30.951V10.317L31.762,1.07Z" transform="translate(-12.04 0)" fill="#877a61"/>
      <path id="Path_374" data-name="Path 374" d="M44.065,28.485v7.8l-6.755,3.9-6.755-3.9v-7.8l1.2-.691V23.516l-4.9,2.831V38.424L37.31,44.463l10.46-6.038V26.346l-4.9-2.83v4.278Z" transform="translate(-19.441 -11.751)" fill="#877a61"/>
    </g>
    <text id="Globalcare" transform="translate(-18569 -17216.277)" fill="#877a61" font-size="37" font-family="Lato-Light, Lato" font-weight="300" letter-spacing="0.05em"><tspan x="0" y="0">Globalcare</tspan></text>
  </g>
</svg>
