<svg xmlns="http://www.w3.org/2000/svg" width="57.476" height="63.551" viewBox="0 0 57.476 63.551"><defs><style>.a{fill:#fbf6eb;}</style></defs><path class="a" d="M446.822,365.1l-3.741-3.007a.933.933,0,0,0-1.168,1.454l3.741,3.007a.933.933,0,0,0,1.168-1.454Z" transform="translate(-389.695 -316.891)"/><path class="a" d="M74.712,155.339,72,153.162l-2.321-4.221a6.851,6.851,0,0,0-1.988-2.245l-.552-.4.953-1.185a3.556,3.556,0,0,0-3.316-5.742,3.552,3.552,0,0,0-4.092-3.289,3.552,3.552,0,0,0-4.092-3.289,3.555,3.555,0,0,0-6.109-2.244l-1.47-1.182a3.388,3.388,0,0,0-5.481,3.1l-.089.008a3.386,3.386,0,0,0-2.99,3.825,3.386,3.386,0,0,0-3.111,3.255l-1.137,1.087-.013.013A13.005,13.005,0,0,0,32.4,148.9l-.339,4.546-7.432,9.247a.933.933,0,1,0,1.454,1.168l7.614-9.473a.933.933,0,0,0,.2-.515l.36-4.835a11.139,11.139,0,0,1,3.243-7.059l.422-.4a3.4,3.4,0,0,0,.683.738l1.459,1.172-1.692,2.106a.933.933,0,1,0,1.454,1.168l11.9-14.8a1.692,1.692,0,0,1,2.64,2.118l-.113.134a.933.933,0,0,0,1.424,1.2l0,0c.023-.023.137-.162.137-.162a1.692,1.692,0,0,1,2.638,2.12h0s-.117.151-.137.183a.933.933,0,0,0,1.5,1.115l.106-.142a1.692,1.692,0,0,1,2.628,2.132h0s-.12.156-.141.19l-.009.013a.933.933,0,0,0,1.5,1.107l.115-.156a1.692,1.692,0,0,1,2.627,2.134l-1.015,1.262-4.386-3.158a4.508,4.508,0,0,0-2.652-.85l-5.125.019a3.38,3.38,0,0,0-.749,6.672l4.951,1.145.009.408a10.556,10.556,0,0,0,1.06,4.378.926.926,0,0,0-.15.148L56.2,156.938a.933.933,0,1,0,1.454,1.168l2.1-2.611a10.578,10.578,0,0,0,1.866,1.938l.7.559a.933.933,0,0,0,1.168-1.454l-.7-.559A8.679,8.679,0,0,1,59.54,149.4l-.026-1.132a.933.933,0,0,0-.722-.887l-5.656-1.308a1.514,1.514,0,0,1,.335-2.99l5.125-.019h.01a2.629,2.629,0,0,1,1.545.5l6.453,4.647a4.973,4.973,0,0,1,1.443,1.63l2.41,4.383a.932.932,0,0,0,.233.278l2.853,2.293a.932.932,0,1,0,1.168-1.453ZM45.7,131.054a1.516,1.516,0,0,1,1.024-.561,1.562,1.562,0,0,1,.168-.009,1.514,1.514,0,0,1,.952.336l1.458,1.172L47.4,134.371,45.937,133.2A1.527,1.527,0,0,1,45.7,131.054Zm-3.079,3.831a1.515,1.515,0,0,1,1.024-.561,1.562,1.562,0,0,1,.168-.009,1.513,1.513,0,0,1,.952.337l1.458,1.172L44.317,138.2l-1.458-1.172A1.527,1.527,0,0,1,42.625,134.885Zm-3.406,4.951a1.525,1.525,0,0,1,2.471-1.354l1.459,1.172-1.911,2.377-1.458-1.172a1.515,1.515,0,0,1-.561-1.024Z" transform="translate(-24.426 -112.626)"/><path class="a" d="M168.478,393.073,160.927,387a.932.932,0,0,0-.549-.205l-.352-.013a9.3,9.3,0,0,1-5.269-1.87l-3.281-2.468c.024-.029.049-.056.072-.086l1.886-2.347a.933.933,0,1,0-1.454-1.168l-1.886,2.347a7.932,7.932,0,0,1-5.092,2.9,1.728,1.728,0,0,0-1.11.631l-7.031,8.748a.933.933,0,1,0,1.454,1.169l7-8.707a9.785,9.785,0,0,0,4.832-2.146l3.49,2.625a11.158,11.158,0,0,0,6.32,2.243l.044,0,7.31,5.876a.933.933,0,1,0,1.168-1.454Z" transform="translate(-122.7 -331.434)"/><path class="a" d="M223.809,7.364a1.631,1.631,0,0,0,2.94,0l2.23-4.633a1.631,1.631,0,0,0-.934-2.249,8.233,8.233,0,0,0-5.546,0,1.631,1.631,0,0,0-.923,2.245Zm3.374-5.2-1.9,3.956-1.907-3.963A6.273,6.273,0,0,1,227.183,2.162Z" transform="translate(-196.92 0.001)"/><path class="a" d="M338.256,43.714a1.62,1.62,0,0,0,1.721.231l4.679-2.132a1.631,1.631,0,0,0,.723-2.326h0a8.233,8.233,0,0,0-4.259-3.552,1.631,1.631,0,0,0-2.146,1.134l-1.255,4.994A1.62,1.62,0,0,0,338.256,43.714Zm2.461-5.933a6.272,6.272,0,0,1,2.923,2.445l-3.995,1.82Z" transform="translate(-298.717 -31.378)"/><path class="a" d="M104.385,41.816l4.679,2.132a1.62,1.62,0,0,0,1.721-.231,1.619,1.619,0,0,0,.538-1.651l-1.255-4.994a1.631,1.631,0,0,0-2.146-1.134,8.233,8.233,0,0,0-4.26,3.552,1.631,1.631,0,0,0,.722,2.326Zm3.939-4.032,1.072,4.265-3.995-1.82A6.274,6.274,0,0,1,108.323,37.783Z" transform="translate(-93.605 -31.38)"/></svg>