<svg xmlns="http://www.w3.org/2000/svg" width="52.473" height="63.551" viewBox="0 0 52.473 63.551"><defs><style>.a{fill:#fbf6eb;}</style></defs><g transform="translate(-44.703 0.001)"><path class="a" d="M173.124,433.5a1.655,1.655,0,0,0-1.654,1.653v3.013a1.655,1.655,0,0,0,1.654,1.654h17.752a1.655,1.655,0,0,0,1.653-1.654v-3.013a1.655,1.655,0,0,0-1.653-1.653Zm17.546,4.462H173.329v-2.6h17.341v2.6Z" transform="translate(-111.061 -379.79)"/><path class="a" d="M355.42,448.85v.889a.929.929,0,0,0,1.859,0v-.889a.929.929,0,0,0-1.859,0Z" transform="translate(-272.218 -392.422)"/><path class="a" d="M142.478,448.85v.889a.929.929,0,0,0,1.859,0v-.889a.929.929,0,0,0-1.859,0Z" transform="translate(-85.66 -392.422)"/><path class="a" d="M96.143,17.946a3.749,3.749,0,0,0-2.7-1.154H88.621l.055-.663a2.621,2.621,0,0,0-2.612-2.836H69.878a.929.929,0,1,0,0,1.859H86.064a.762.762,0,0,1,.759.825L85.253,35a14.362,14.362,0,0,1-28.627,0l-1.57-19.021a.762.762,0,0,1,.759-.825h1.239a.929.929,0,1,0,0-1.859H55.815A2.621,2.621,0,0,0,53.2,16.129l.055.663H48.435a3.731,3.731,0,0,0-3.728,3.9l.526,11.5a12.591,12.591,0,0,0,12.6,12.034h.67a16.229,16.229,0,0,0,9.455,5.534V55.17L66.713,57.1H64.07a2.582,2.582,0,0,0-2.579,2.579v2.16H56.605a3.414,3.414,0,0,0-3.411,3.411v8.085h-.5a.929.929,0,0,0,0,1.859h36.5a.929.929,0,0,0,0-1.859h-.5V70.944a.929.929,0,0,0-1.859,0v2.394H55.053V65.253A1.554,1.554,0,0,1,56.605,63.7H85.274a1.554,1.554,0,0,1,1.552,1.552v1.731a.929.929,0,0,0,1.859,0V65.253a3.414,3.414,0,0,0-3.411-3.411H80.512v-2.16A2.582,2.582,0,0,0,77.933,57.1H75.289L74.046,55.17V49.737a16.227,16.227,0,0,0,9.331-5.51h.67a12.591,12.591,0,0,0,12.6-12.034l.167-3.658a.929.929,0,1,0-1.857-.085l-.167,3.658a10.732,10.732,0,0,1-10.05,10.236,16.152,16.152,0,0,0,1.055-2.009,8.882,8.882,0,0,0,7.138-8.312l.483-10.542a.929.929,0,0,0-.928-.972H88.314l.153-1.859h4.977a1.873,1.873,0,0,1,1.871,1.959l-.178,3.881a.929.929,0,0,0,.886.971h.043a.929.929,0,0,0,.928-.887l.178-3.881A3.748,3.748,0,0,0,96.143,17.946ZM54.774,35.15a16.276,16.276,0,0,0,.545,3.04A7.03,7.03,0,0,1,50.8,31.938l-.438-9.57h3.353ZM47.09,32.108l-.526-11.5a1.873,1.873,0,0,1,1.871-1.959h4.977l.153,1.859H49.392a.929.929,0,0,0-.928.972l.483,10.542a8.882,8.882,0,0,0,7.138,8.312,16.135,16.135,0,0,0,1.055,2.009A10.732,10.732,0,0,1,47.09,32.108ZM78.653,59.682v2.16h-15.3v-2.16a.721.721,0,0,1,.72-.72H77.933A.721.721,0,0,1,78.653,59.682Zm-6.318-3.737L73.08,57.1H68.923l.744-1.158a.93.93,0,0,0,.148-.5V50q.559.038,1.124.039.627,0,1.248-.049v5.455A.929.929,0,0,0,72.335,55.946ZM91.514,22.368l-.438,9.57A7.03,7.03,0,0,1,86.56,38.19a16.278,16.278,0,0,0,.545-3.04L88.16,22.368h3.354Z" transform="translate(0 -11.646)"/><path class="a" d="M176,79.142a11.383,11.383,0,0,0,5.563-1.454.929.929,0,0,0-.91-1.62,9.518,9.518,0,1,1,4.866-8.3,9.412,9.412,0,0,1-2.107,5.97A.929.929,0,1,0,184.86,74.9,11.376,11.376,0,1,0,176,79.142Z" transform="translate(-105.062 -49.401)"/><path class="a" d="M211.131,92.3A1.4,1.4,0,0,0,210,91.346l-3.5-.509-1.566-3.174a1.407,1.407,0,0,0-2.523,0l-1.566,3.174-3.5.509a1.407,1.407,0,0,0-.78,2.4l2.534,2.471-.6,3.488a1.407,1.407,0,0,0,2.041,1.483l3.133-1.647,3.133,1.647a1.407,1.407,0,0,0,2.041-1.483l-.6-3.488,2.534-2.47A1.4,1.4,0,0,0,211.131,92.3Zm-4.358,2.747a1.407,1.407,0,0,0-.4,1.245l.484,2.82-2.533-1.331a1.406,1.406,0,0,0-1.309,0l-2.533,1.332.484-2.82a1.406,1.406,0,0,0-.4-1.245l-2.049-2,2.832-.411a1.406,1.406,0,0,0,1.059-.769l1.266-2.566,1.266,2.566a1.406,1.406,0,0,0,1.059.77l2.832.411Z" transform="translate(-132.663 -76.115)"/><path class="a" d="M166.182,4.914A3.075,3.075,0,0,1,168,6.764a1.234,1.234,0,0,0,1.078.792l.071,0a1.233,1.233,0,0,0,1.09-.662,4.645,4.645,0,0,1,2.108-2.01A1.23,1.23,0,0,0,172.37,2.7,4.958,4.958,0,0,1,170.24.646,1.239,1.239,0,0,0,169.08,0a1.21,1.21,0,0,0-1.063.773,3.344,3.344,0,0,1-1.879,1.874,1.229,1.229,0,0,0,.045,2.265Zm3.035-2.449a6.772,6.772,0,0,0,1.374,1.316,6.46,6.46,0,0,0-1.371,1.291,4.745,4.745,0,0,0-1.279-1.315A5.035,5.035,0,0,0,169.216,2.464Z" transform="translate(-105.747 0)"/></g></svg>