<svg xmlns="http://www.w3.org/2000/svg" width="61.238" height="63.468" viewBox="0 0 61.238 63.468"><defs><style>.a{fill:#fbf6eb;}</style></defs><path class="a" d="M20.134,332.035a15.186,15.186,0,0,0-3.393,4.63l-.439.925L9.168,346.6a.933.933,0,1,0,1.462,1.158l7.2-9.089a.937.937,0,0,0,.112-.179l.484-1.021A13.327,13.327,0,0,1,21.4,333.4a.933.933,0,1,0-1.27-1.366Z" transform="translate(-8.967 -290.529)"/><path class="a" d="M168.927,251.065a3.588,3.588,0,0,0-5.052-.417l-.482.409a3.582,3.582,0,0,0-5.834-2.047l-.428.362a3.59,3.59,0,0,0-5.828-2l-7.168,6.075a4.24,4.24,0,0,0-1.157-.161H130.1a15.324,15.324,0,0,0-6.912,1.657.933.933,0,1,0,.845,1.663,13.452,13.452,0,0,1,6.066-1.454h12.879a2.388,2.388,0,1,1-.052,4.775h-8.333a.933.933,0,1,0,0,1.865h8.389a4.218,4.218,0,0,0,2.97-1.212,4.334,4.334,0,0,0,.329-.361h7.88a3.552,3.552,0,0,0,2.294-.842l8.626-7.31a1.719,1.719,0,1,1,2.223,2.623l-13.617,11.54a8.458,8.458,0,0,1-4.471,1.95l-1.68.2a.933.933,0,0,0,.11,1.859.956.956,0,0,0,.113-.007l1.68-.2a10.316,10.316,0,0,0,5.454-2.379l13.617-11.54A3.589,3.589,0,0,0,168.927,251.065ZM152.509,248.8a1.719,1.719,0,0,1,2.378,2.475l-7.661,6.493q.006-.111.006-.224a4.242,4.242,0,0,0-1.363-3.116Zm-3.1,9.558,9.352-7.925a1.719,1.719,0,0,1,2.223,2.623l-5.739,4.9a1.686,1.686,0,0,1-1.089.4Z" transform="translate(-108.538 -215.873)"/><path class="a" d="M173.678,426.1l-9.563,1.15a.933.933,0,0,0-.6.328l-6.239,7.469a.933.933,0,0,0,1.431,1.2l6-7.185,9.2-1.106a.933.933,0,1,0-.223-1.852Z" transform="translate(-138.641 -373.112)"/><path class="a" d="M167.209,26.685s-5.45-8.484-5.458-8.5a10.367,10.367,0,0,1-1.772-4.416.933.933,0,1,0-1.845.276,12.237,12.237,0,0,0,2.08,5.2l5.277,8.215v1.36a1.645,1.645,0,0,0,.37,1.04v3.206a2.724,2.724,0,0,0,2.721,2.721h3.29a2.724,2.724,0,0,0,2.721-2.721V29.863a1.645,1.645,0,0,0,.37-1.04v-1.36l5.277-8.215a12.231,12.231,0,0,0-3.121-17.125A12.466,12.466,0,0,0,165.387.933a11.372,11.372,0,0,0-6.424,6.381,13.947,13.947,0,0,0-.719,2.434.933.933,0,1,0,1.83.361A12.079,12.079,0,0,1,160.7,8a9.5,9.5,0,0,1,5.368-5.331,10.627,10.627,0,0,1,10,.992A10.366,10.366,0,0,1,178.7,18.19c-.008.011-5.458,8.5-5.458,8.5a.934.934,0,0,0-.148.5v1.422h-.228L173.4,19.6h.889A2.6,2.6,0,0,0,176.884,17v-.1a2.594,2.594,0,0,0-5.184-.152l-.058.985h-2.822l-.058-.985a2.594,2.594,0,0,0-5.184.152V17a2.6,2.6,0,0,0,2.594,2.594h.889l.531,9.015h-.237V27.189a.932.932,0,0,0-.148-.5Zm6.354-9.829a.729.729,0,0,1,1.457.043V17a.73.73,0,0,1-.729.729h-.779Zm-7.39.875a.73.73,0,0,1-.729-.729v-.1a.729.729,0,0,1,1.457-.043l.052.875h-.779Zm6.555,15.338a.857.857,0,0,1-.856.856h-3.29a.857.857,0,0,1-.856-.856V30.477h5Zm-3.8-13.473h2.6L171,28.611h-1.539Z" transform="translate(-139.577 0.001)"/><path class="a" d="M385.353,99.909a.932.932,0,0,0,.933.933h2.2a.933.933,0,0,0,0-1.865h-2.2A.933.933,0,0,0,385.353,99.909Z" transform="translate(-338.551 -86.669)"/><path class="a" d="M374.42,48.3a.929.929,0,0,0,.324-.058l2.061-.764a.933.933,0,1,0-.648-1.749l-2.061.764a.933.933,0,0,0,.324,1.807Z" transform="translate(-328.16 -39.993)"/><path class="a" d="M374.1,147.939l2.061.764a.933.933,0,0,0,.648-1.749l-2.061-.764a.933.933,0,1,0-.648,1.749Z" transform="translate(-328.16 -127.961)"/><path class="a" d="M93.815,100.841h2.2a.933.933,0,0,0,0-1.865h-2.2a.933.933,0,0,0,0,1.865Z" transform="translate(-82.447 -86.669)"/><path class="a" d="M106.454,47.482l2.061.764a.933.933,0,0,0,.648-1.749l-2.061-.764a.933.933,0,1,0-.648,1.749Z" transform="translate(-93.799 -39.995)"/><path class="a" d="M109.714,146.74a.932.932,0,0,0-1.2-.55l-2.061.764a.933.933,0,1,0,.648,1.749l2.061-.764A.933.933,0,0,0,109.714,146.74Z" transform="translate(-93.799 -127.96)"/></svg>