<svg xmlns="http://www.w3.org/2000/svg" width="63.505" height="62.917" viewBox="0 0 63.505 62.917"><defs><style>.a{fill:#fbf6eb;}</style></defs><path class="a" d="M410.316,403.915a.933.933,0,1,0-1.606.948l6.6,11.177a.933.933,0,1,0,1.606-.948Z" transform="translate(-357.775 -353.582)"/><path class="a" d="M63.375,202.466,53.5,185.735a4.637,4.637,0,0,0-7.987,0l-2.265,3.837-5.737-9.72a6.5,6.5,0,0,0-11.193,0l-5.9,10-2.427-4.112a4.637,4.637,0,0,0-7.987,0L.13,202.466a.933.933,0,1,0,1.606.948l9.875-16.731a2.772,2.772,0,0,1,4.774,0l2.95,5L4.691,216.494a.933.933,0,1,0,1.606.948l12.724-21.558,2.893-.637a6.863,6.863,0,0,1,5.209.928,8.8,8.8,0,0,0,9.459,0,6.863,6.863,0,0,1,5.209-.928l3.035.668,4.055,6.87a.933.933,0,1,0,1.606-.948l-6.157-10.431,2.788-4.724a2.772,2.772,0,0,1,4.774,0l9.875,16.731a.933.933,0,0,0,1.606-.948Zm-21.183-9.041a8.715,8.715,0,0,0-6.616,1.179,6.929,6.929,0,0,1-7.448,0,8.715,8.715,0,0,0-6.616-1.179l-1.2.263L27.925,180.8a4.634,4.634,0,0,1,7.981,0l7.626,12.921Z" transform="translate(0 -154.983)"/><path class="a" d="M177.175,11.78a.933.933,0,0,0,1.3-1.336l-.182-.177L182.88,9.6a1.588,1.588,0,0,0,1.2-.869l2.051-4.155,2.05,4.155a1.588,1.588,0,0,0,1.2.87l4.585.666L190.641,13.5a1.588,1.588,0,0,0-.457,1.406l.783,4.567-4.1-2.156a1.59,1.59,0,0,0-1.479,0l-4.1,2.156.783-4.567a1.589,1.589,0,0,0-.457-1.407l-.267-.26a.933.933,0,1,0-1.3,1.336l.163.159-.853,4.975a1.589,1.589,0,0,0,2.306,1.675l4.468-2.349,4.468,2.349a1.589,1.589,0,0,0,2.306-1.675l-.853-4.975,3.615-3.523a1.589,1.589,0,0,0-.881-2.71l-5-.726L187.552,3.25a1.589,1.589,0,0,0-2.85,0l-2.234,4.527-5,.726a1.589,1.589,0,0,0-.881,2.711Z" transform="translate(-154.213 -2.364)"/><path class="a" d="M359.025,83.376a.933.933,0,0,0,.933.933h2.027a.933.933,0,0,0,0-1.865h-2.027A.933.933,0,0,0,359.025,83.376Z" transform="translate(-314.381 -72.485)"/><path class="a" d="M343.119,13.756a.928.928,0,0,0,.524-.162l1.676-1.141a.933.933,0,1,0-1.05-1.542l-1.676,1.141a.933.933,0,0,0,.526,1.7Z" transform="translate(-299.636 -9.707)"/><path class="a" d="M342.592,146.665l1.676,1.141a.933.933,0,0,0,1.05-1.542l-1.676-1.141a.933.933,0,1,0-1.05,1.542Z" transform="translate(-299.635 -127.23)"/><path class="a" d="M123.924,84.308h2.027a.933.933,0,1,0,0-1.865h-2.027a.933.933,0,1,0,0,1.865Z" transform="translate(-107.697 -72.485)"/><path class="a" d="M143.065,12.452l1.676,1.141a.933.933,0,1,0,1.05-1.542l-1.676-1.141a.933.933,0,1,0-1.05,1.542Z" transform="translate(-124.919 -9.706)"/><path class="a" d="M144.74,145.122l-1.676,1.141a.933.933,0,1,0,1.05,1.542l1.676-1.141a.933.933,0,1,0-1.05-1.542Z" transform="translate(-124.918 -127.229)"/></svg>