<svg id="Group_199" data-name="Group 199" xmlns="http://www.w3.org/2000/svg" xmlns:xlink="http://www.w3.org/1999/xlink" width="255.102" height="51.95" viewBox="0 0 255.102 51.95">
  <defs>
    <clipPath id="clip-path">
      <rect id="Rectangle_1499" data-name="Rectangle 1499" width="255.102" height="51.95" fill="none"/>
    </clipPath>
  </defs>
  <g id="Group_199-2" data-name="Group 199" clip-path="url(#clip-path)">
    <path id="Path_356" data-name="Path 356" d="M72.136,36.9q-.486-9.162-10.611-12.057,8.681-3.131,8.44-12.057Q69.722.246,53.085,0H28.553V7.235h21.4q8.195,0,8.2,6.752.237,7-7.717,6.993H38.616v-8.7H28.553v8.148H17.241V0h-9.9V51.95h9.9V30.319H28.553V51.847H52.6q20.256.48,19.533-14.951m-20.5,8.2H38.616V29.662H51.638q8.681,0,8.681,7.958.237,7.477-8.681,7.475" transform="translate(-5.126 -0.001)" fill="#693e12"/>
    <path id="Path_357" data-name="Path 357" d="M274.121,46.117h2.795v9.7h15.938v-9.7h2.8V69.642h-2.8v-11.5H276.915v11.5h-2.795Z" transform="translate(-191.288 -32.182)" fill="#ec7f31"/>
    <path id="Path_358" data-name="Path 358" d="M376.131,80.58c0,1.458.1,3.56.169,3.951h-2.519a17.979,17.979,0,0,1-.209-2.593c-.917,1.809-2.891,3.056-6.728,3.056-5,0-6.789-2.869-6.789-5.31,0-4.22,4.088-5.391,9.046-5.391h4.45V73.3c0-1.953-.885-3.832-4.958-3.832-3.64,0-4.509,1.564-4.893,3.255h-2.633c.228-2.247,1.8-5.272,7.539-5.272,6.013,0,7.527,2.824,7.527,5.559Zm-2.581-4.4c-.588-.005-1.755-.005-4.374-.005-4.375,0-6.492.888-6.492,3.375,0,1.823,1.4,3.365,4.567,3.365,5.129,0,6.3-2.949,6.3-5.876Z" transform="translate(-251.255 -47.07)" fill="#ec7f31"/>
    <path id="Path_359" data-name="Path 359" d="M433.759,81.825V91.893h-2.633V72.083c0-1.387,0-2.78-.034-4.167h2.558a29.283,29.283,0,0,1,.11,3.074c1.04-1.848,3.168-3.536,6.93-3.536,4.781,0,8.152,3.694,8.152,8.493,0,5.324-3.839,9.048-8.655,9.048-3.847,0-5.443-1.629-6.426-3.169m12.362-5.8c0-3.1-1.9-6.378-6.166-6.378-4.336,0-6.276,2.959-6.276,6.661,0,3.668,2.049,6.478,6.206,6.478,4.181,0,6.236-3.27,6.236-6.761" transform="translate(-300.826 -47.07)" fill="#ec7f31"/>
    <path id="Path_360" data-name="Path 360" d="M505.032,81.825V91.893H502.4V72.083c0-1.387,0-2.78-.034-4.167h2.558a29.272,29.272,0,0,1,.11,3.074c1.04-1.848,3.168-3.536,6.929-3.536,4.781,0,8.152,3.694,8.152,8.493,0,5.324-3.839,9.048-8.655,9.048-3.847,0-5.443-1.629-6.426-3.169m12.362-5.8c0-3.1-1.9-6.378-6.166-6.378-4.337,0-6.276,2.959-6.276,6.661,0,3.668,2.049,6.478,6.206,6.478,4.181,0,6.236-3.27,6.236-6.761" transform="translate(-350.562 -47.07)" fill="#ec7f31"/>
    <path id="Path_361" data-name="Path 361" d="M569.233,68.984c3.928,8.426,6.166,13.282,6.743,14.749h.046c.658-1.634,2.567-6.509,6.2-14.749h2.767L577.825,85.21c-3.13,7.059-4.329,8.213-8.271,8.213a15.138,15.138,0,0,1-2.161-.17v-2.3a16.991,16.991,0,0,0,1.981.149c2.358,0,3.372-1,5.169-4.7l-8.215-17.409Z" transform="translate(-395.198 -48.139)" fill="#ec7f31"/>
    <path id="Path_362" data-name="Path 362" d="M640.984,46.117h11.452c5.145,0,7.977,2.115,7.977,5.873A5.094,5.094,0,0,1,656.3,57c2.2.532,5.163,1.983,5.163,5.789,0,4.793-4.234,6.853-8.692,6.853H640.984Zm10.683,9.844c3.82,0,5.8-1.263,5.8-3.789,0-2.966-2.536-3.8-5.648-3.8h-8.058v7.588Zm-7.906,11.43h8.209c3.1,0,6.521-.9,6.521-4.534,0-3.093-2.637-4.646-6.985-4.646h-7.745Z" transform="translate(-447.295 -32.182)" fill="#ec7f31"/>
    <path id="Path_363" data-name="Path 363" d="M736.861,80.751c0,1.624-.005,3.225.029,4.848h-2.523a30.118,30.118,0,0,1-.134-3.064c-.876,2.054-2.523,3.527-6.4,3.527-3.734,0-6.609-1.892-6.609-6.724V68.984h2.633v9.868c0,2.6,1.1,4.987,4.495,4.987,4.094,0,5.879-2.252,5.879-7.394V68.984h2.633Z" transform="translate(-503.286 -48.139)" fill="#ec7f31"/>
    <path id="Path_364" data-name="Path 364" d="M785.362,68.984c3.928,8.426,6.166,13.282,6.743,14.749h.046c.658-1.634,2.567-6.509,6.2-14.749h2.767L793.954,85.21c-3.13,7.059-4.329,8.213-8.271,8.213a15.146,15.146,0,0,1-2.161-.17v-2.3a17,17,0,0,0,1.982.149c2.358,0,3.372-1,5.169-4.7l-8.215-17.409Z" transform="translate(-546.019 -48.139)" fill="#ec7f31"/>
    <path id="Path_365" data-name="Path 365" d="M64.791,36.9Q64.3,27.734,54.18,24.839q8.681-3.131,8.44-12.057Q62.377.246,45.74,0H21.208V7.235h21.4q8.195,0,8.2,6.752.237,7-7.717,6.993H31.271v-8.7H21.208v8.148H9.9V0H0V51.95H9.9V30.319H21.208V51.847h24.05q20.256.48,19.533-14.951m-20.5,8.2H31.271V29.662H44.293q8.681,0,8.681,7.958.238,7.477-8.681,7.475" transform="translate(0 -0.001)" fill="#ee9035"/>
  </g>
</svg>
