<svg xmlns="http://www.w3.org/2000/svg" width="60.419" height="54.367" viewBox="0 0 60.419 54.367"><defs><style>.a{fill:#fff;}</style></defs><g transform="translate(0 0)"><path class="a" d="M56.31,21.939c.151-2.354.472-12.549-4.567-19.671A2.989,2.989,0,0,0,46.307,3.98c0,.016-.009.029-.009.045v19.6c-.888.82-1.7,1.691-2.459,2.5-.353.379-.7.75-1.042,1.107a16.759,16.759,0,0,1-9.63,4.975H29.235A16.624,16.624,0,0,1,19.6,27.23c-.342-.354-.689-.726-1.042-1.107-.757-.811-1.571-1.682-2.459-2.5V4.02c0-.018-.009-.032-.01-.05a2.989,2.989,0,0,0-5.432-1.7C5.578,9.45,5.947,19.76,6.092,21.939A17.275,17.275,0,0,0,1,34.265a18.089,18.089,0,0,0,2.045,8.916c.11,3.516.357,6.82.723,9.564a3.027,3.027,0,0,0,3,2.617H55.634a3.027,3.027,0,0,0,3-2.617,94.77,94.77,0,0,0,.716-9.552A18.074,18.074,0,0,0,61.4,34.265,17.277,17.277,0,0,0,56.31,21.939ZM50.618,47.065a19.578,19.578,0,0,0,4.719-9.6c1.147-5.161.3-10.832-.375-14.008a15.388,15.388,0,0,1,4.425,10.813C59.389,41.47,56.229,46.006,50.618,47.065ZM16.1,49.244a14.345,14.345,0,0,0,11.5-6.623,6.969,6.969,0,0,1,3.6-1.353A6.927,6.927,0,0,1,34.772,42.6c.009.007.019.009.028.016a14.345,14.345,0,0,0,11.5,6.629v4.1H16.1ZM30.156,34.221h2.09a18.386,18.386,0,0,0,1.091,5.416,6.156,6.156,0,0,0-4.272,0,18.385,18.385,0,0,0,1.091-5.416ZM48.732,3.2a.945.945,0,0,1,.723-.17.987.987,0,0,1,.645.4c3.884,5.493,4.294,13.256,4.255,16.847a1.007,1.007,0,0,0-.52-.149,8.557,8.557,0,0,0-1.462.13c.041-3.249-.3-10.59-3.872-15.652A1.014,1.014,0,0,1,48.732,3.2Zm-.417,5.211c2.051,4.686,2.1,10.3,2.032,12.457A11.718,11.718,0,0,0,48.315,22ZM44.248,28.629c.351-.363.7-.743,1.067-1.131.871-.934,1.754-1.879,2.686-2.71.009-.009.018-.015.027-.024a10.742,10.742,0,0,1,3.617-2.256l.031-.011a7.012,7.012,0,0,1,.939-.239c.579,2.221,2.061,8.9.757,14.764-1.633,7.349-5.346,9.771-6.242,10.256-5.949-.293-12.507-3.877-12.892-13.195a18.926,18.926,0,0,0,10.009-5.455Zm-26.094,0a18.92,18.92,0,0,0,10.009,5.456c-.384,9.318-6.946,12.9-12.894,13.195-.906-.5-4.61-2.919-6.242-10.256-1.3-5.839.151-12.442.757-14.764a7.047,7.047,0,0,1,.931.236l.045.017a10.741,10.741,0,0,1,3.611,2.253c.009.009.018.015.027.024.932.832,1.812,1.776,2.686,2.71.363.387.718.766,1.069,1.129Zm-6.1-7.764c-.072-2.16-.019-7.775,2.032-12.459V22a11.718,11.718,0,0,0-2.032-1.133ZM12.3,3.436a.991.991,0,0,1,.647-.409.948.948,0,0,1,.723.17A1.014,1.014,0,0,1,13.9,4.607c-3.568,5.062-3.91,12.4-3.869,15.65a8.557,8.557,0,0,0-1.462-.13,1.007,1.007,0,0,0-.52.149c-.038-3.591.37-11.354,4.253-16.841ZM7.443,23.426c-.689,3.2-1.528,8.859-.379,14.033a19.578,19.578,0,0,0,4.719,9.6c-5.61-1.059-8.77-5.6-8.77-12.8A15.3,15.3,0,0,1,7.443,23.426ZM5.763,52.481c-.257-1.932-.452-4.162-.583-6.544a12.842,12.842,0,0,0,8.907,3.368v4.043H6.768A1.007,1.007,0,0,1,5.763,52.481Zm49.871.868H48.315V49.306a12.844,12.844,0,0,0,8.91-3.371c-.1,1.92-.279,4.249-.587,6.549a1.007,1.007,0,0,1-1,.866Z" transform="translate(-0.992 -0.995)"/></g></svg>