<svg xmlns="http://www.w3.org/2000/svg" width="273.318" height="66.001" viewBox="0 0 273.318 66.001">
  <g id="Group_366" data-name="Group 366" transform="translate(0)">
    <path id="Path_413" data-name="Path 413" d="M13.325,6.745s6.8,27.868,7.888,32.391c1.265,5.279,3.547,7.222,10.129,5.912l4.246-17.277c1.076-4.291,1.8-7.352,2.492-11.717H38.2a113.639,113.639,0,0,0,2.064,11.731s1.728,7.843,2.613,11.963,3.358,6.713,9.8,5.3L62.8,6.749H54.631L51.176,23.307c-.928,4.821-1.773,8.586-2.422,13h-.115c-.59-4.365-1.341-7.982-2.286-12.678l-3.6-16.877h-8.51L30.4,23.2c-1.091,5-2.11,9.034-2.759,13.294h-.117c-.663-4.012-1.549-9.085-2.506-13.923,0,0-2.284-11.768-3.087-15.823h-8.6Zm77.876,0v38.3H98.98V6.745Zm109.542,0V35c0,3.895.733,6.625,2.3,8.29a8.613,8.613,0,0,0,6.331,2.4A18.435,18.435,0,0,0,215,44.861l-.1-6.076a11.819,11.819,0,0,1-2.954.351c-2.65,0-3.537-1.7-3.537-5.195V23.131h6.772V15.8h-6.772V6.747h-7.67ZM73.821,15.625a22.306,22.306,0,0,0-10.764,2.566l1.532,5.242a15.747,15.747,0,0,1,7.847-2.206c4.778-.012,5.558,2.7,5.558,4.441v.413c-10.41-.016-16.985,3.586-16.985,10.93,0,4.484,3.346,8.685,9.168,8.685a10.436,10.436,0,0,0,8.377-3.718h.177s1.189,4.973,7.742,3.071a41.962,41.962,0,0,1-.456-6.935V27.882c0-6.522-2.785-12.257-12.2-12.257m46.524,0a9.053,9.053,0,0,0-8.379,4.558h-.115V16.274h-7.424V45.048h7.82V28.174a6.785,6.785,0,0,1,.366-2.356,5.292,5.292,0,0,1,4.753-3.685c3.155,0,4.63,2.666,4.63,6.516v16.4h7.812V27.968a8.015,8.015,0,0,1,.325-2.331,4.931,4.931,0,0,1,4.694-3.5c3.2,0,4.733,2.619,4.733,7.15V45.048h7.816V28.1c0-8.937-4.538-12.477-9.661-12.477a10.421,10.421,0,0,0-5.68,1.563,12.111,12.111,0,0,0-3.644,3.584h-.115A8.212,8.212,0,0,0,120.345,15.625Zm42.937,0a22.31,22.31,0,0,0-10.762,2.566l1.532,5.242a15.754,15.754,0,0,1,7.847-2.206c4.774-.012,5.556,2.7,5.556,4.441v.413c-10.408-.016-16.986,3.586-16.986,10.93,0,4.484,3.35,8.685,9.174,8.685a10.426,10.426,0,0,0,8.371-3.718h.177s1.189,4.973,7.744,3.071a41.963,41.963,0,0,1-.456-6.935V27.882C175.479,21.36,172.694,15.625,163.282,15.625Zm32.471,0a8.468,8.468,0,0,0-7.83,6.076h-.22V16.274h-7.037V45.048h8.023V30.314a10.806,10.806,0,0,1,.175-2.124,6.057,6.057,0,0,1,6.341-5.059,14.644,14.644,0,0,1,2.317.205V15.8A7.662,7.662,0,0,0,195.753,15.625ZM78.247,31.179v3.589a5.392,5.392,0,0,1-.2,1.559A5.451,5.451,0,0,1,72.8,40a3.548,3.548,0,0,1-3.862-3.8C68.942,32.245,73.293,31.152,78.247,31.179Zm89.461,0v3.589A5.087,5.087,0,0,1,162.267,40a3.55,3.55,0,0,1-3.864-3.8C158.4,32.245,162.756,31.152,167.708,31.179Z" transform="translate(-13.325 7.104)" fill="#367bbf"/>
    <path id="Path_414" data-name="Path 414" d="M147.154,0c-2.51,0-4.507,1.4-4.507,3.11l1.524,17.267c.168,1.039,1.444,1.843,2.985,1.843s2.812-.805,2.985-1.843l1.532-17.267c0-1.707-2-3.11-4.515-3.11ZM122.305,13.854a4.834,4.834,0,0,0-3.726,2.652c-1.261,2.173-1.037,4.6.438,5.456l15.712,7.319c.982.366,2.315-.333,3.087-1.664s.717-2.841-.1-3.508l-14.192-9.954A2.294,2.294,0,0,0,122.305,13.854Zm49.7,0a2.294,2.294,0,0,0-1.218.3l-14.194,9.954c-.811.668-.871,2.171-.1,3.508s2.1,2.029,3.085,1.664l15.72-7.319c1.481-.852,1.693-3.282.442-5.456a4.86,4.86,0,0,0-3.732-2.652Zm-36.689,22.78a1.584,1.584,0,0,0-.583.1l-15.716,7.309c-1.473.857-1.7,3.289-.435,5.466s3.469,3.2,4.942,2.35l14.194-9.946c.818-.676.877-2.179.1-3.515l.008,0A3.224,3.224,0,0,0,135.316,36.634Zm23.682,0a3.221,3.221,0,0,0-2.506,1.764l.006,0c-.772,1.335-.713,2.839.1,3.515l14.194,9.946c1.473.852,3.687-.181,4.948-2.35s1.039-4.609-.44-5.466l-15.716-7.309A1.6,1.6,0,0,0,159,36.634Zm-11.846,7.157c-1.539,0-2.81.8-2.978,1.838L142.649,62.9c0,1.709,2,3.108,4.507,3.108s4.515-1.4,4.515-3.108l-1.528-17.267c-.173-1.037-1.442-1.836-2.985-1.838Z" transform="translate(96.758 -0.003)" fill="#f5c34a"/>
  </g>
</svg>
