<svg xmlns="http://www.w3.org/2000/svg" width="50.453" height="50.453" viewBox="0 0 50.453 50.453"><defs><style>.a{fill:#fff;}</style></defs><g transform="translate(4.204)"><path class="a" d="M52.613,0A12.613,12.613,0,0,0,40,12.613v9.25a5.893,5.893,0,0,0,5.886,5.886h.841V26.067h-.841a4.209,4.209,0,0,1-4.2-4.2v-9.25a10.932,10.932,0,0,1,21.863,0v9.25a4.209,4.209,0,0,1-4.2,4.2H58.5v1.682h.841a5.893,5.893,0,0,0,5.886-5.886v-9.25A12.613,12.613,0,0,0,52.613,0Z" transform="translate(-40)"/></g><g transform="translate(4.205 37.761)"><path class="a" d="M42.728,361.117l.615-.968-1.42-.9-.615.969a8.382,8.382,0,0,0,.347,9.488v2.236h1.682v-2.523a.841.841,0,0,0-.184-.526A6.7,6.7,0,0,1,42.728,361.117Z" transform="translate(-40.003 -359.248)"/></g><g transform="translate(31.113)"><path class="a" d="M311.136,0H300.2A4.209,4.209,0,0,0,296,4.2v8.409a4.209,4.209,0,0,0,4.2,4.2h1.682v3.364a.841.841,0,0,0,.519.777.83.83,0,0,0,.322.064.841.841,0,0,0,.595-.246l3.958-3.958h3.856a4.209,4.209,0,0,0,4.2-4.2V4.2A4.209,4.209,0,0,0,311.136,0Zm2.523,12.613a2.523,2.523,0,0,1-2.523,2.523h-4.2a.841.841,0,0,0-.595.246l-2.769,2.769V15.977a.841.841,0,0,0-.841-.841H300.2a2.523,2.523,0,0,1-2.523-2.523V4.2A2.523,2.523,0,0,1,300.2,1.682h10.932A2.523,2.523,0,0,1,313.659,4.2Z" transform="translate(-296)"/></g><g transform="translate(35.038 4.364)"><g transform="translate(0 0)"><rect class="a" width="6" height="2" transform="translate(-0.104 -0.277)"/></g></g><g transform="translate(43.039 4.364)"><g transform="translate(0 0)"><rect class="a" width="3" height="2" transform="translate(-0.104 -0.277)"/></g></g><g transform="translate(35.038 7.273)"><g transform="translate(0 0)"><rect class="a" width="11" height="2" transform="translate(-0.104 -0.188)"/></g></g><g transform="translate(35.038 10.91)"><g transform="translate(0 0)"><rect class="a" width="6" height="1" transform="translate(-0.104 0.176)"/></g></g><g transform="translate(26.091 37.761)"><path class="a" d="M250.259,360.217l-.615-.969-1.42.9.615.969a6.7,6.7,0,0,1-.425,7.774.841.841,0,0,0-.184.526v2.523h1.682V369.7A8.382,8.382,0,0,0,250.259,360.217Z" transform="translate(-248.224 -359.248)"/></g><g transform="translate(0 7.342)"><path class="a" d="M49.612,91.1H42.044a5.886,5.886,0,0,0-5.874,5.647L33.635,101.3V97.822a5.893,5.893,0,0,0-5.886-5.886H24.676l-.023-.018-.015.018H22.7a1.682,1.682,0,0,1-1.682-1.682V88.276A8.409,8.409,0,0,0,25.227,81V74.277a8.426,8.426,0,0,0-1.009-3.991.841.841,0,0,0-1.093-.362l-14.233,6.7a.841.841,0,0,0-.483.761V81a8.409,8.409,0,0,0,4.2,7.271v1.979a1.682,1.682,0,0,1-1.682,1.682H5.886A5.893,5.893,0,0,0,0,97.822v15.136H1.682V97.822a4.209,4.209,0,0,1,4.2-4.2H8.562l7.572,10.58a.841.841,0,0,0,.673.351h.011a.841.841,0,0,0,.673-.336l7.988-10.6h2.27a4.209,4.209,0,0,1,4.2,4.2v6.727a.841.841,0,0,0,1.576.408l3.964-7.135h4.821l-8.2,15.136h1.913l8.2-15.136h.336a5.893,5.893,0,0,0,5.886-5.886A.841.841,0,0,0,49.612,91.1ZM10.091,81V77.917l12.984-6.11a6.727,6.727,0,0,1,.47,2.471V81a6.727,6.727,0,0,1-13.454,0Zm6.745,21.284L14.24,98.663h5.328Zm4.005-5.308H13.034l-2.407-3.364h.305A3.364,3.364,0,0,0,14.3,90.254V89.026a8.4,8.4,0,0,0,5.045,0v1.229A3.364,3.364,0,0,0,22.7,93.618h.673Zm23.726-.841H37.924a4.211,4.211,0,0,1,4.12-3.364h6.643A4.211,4.211,0,0,1,44.567,96.14Z" transform="translate(0 -69.847)"/></g></svg>