<svg xmlns="http://www.w3.org/2000/svg" width="64.419" height="49.29" viewBox="0 0 64.419 49.29"><defs><style>.a{fill:#fff;}</style></defs><g transform="translate(21.18 43.369)"><path class="a" d="M169.283,404.814a.944.944,0,0,0-.944.944v4.034a.944.944,0,0,0,1.887,0v-4.034A.944.944,0,0,0,169.283,404.814Z" transform="translate(-168.339 -404.814)"/></g><g transform="translate(41.352 43.369)"><path class="a" d="M329.6,404.814a.944.944,0,0,0-.944.944v4.034a.944.944,0,0,0,1.887,0v-4.034A.944.944,0,0,0,329.6,404.814Z" transform="translate(-328.661 -404.814)"/></g><g transform="translate(7.06 22.189)"><path class="a" d="M63.53,237.584c-2.191-1.1-6.3-1.108-6.473-1.108a.944.944,0,0,0,0,1.887,16.327,16.327,0,0,1,5.63.909.944.944,0,0,0,.844-1.688Z" transform="translate(-56.113 -236.476)"/></g><g transform="translate(4.034 41.352)"><path class="a" d="M33.008,388.782a.944.944,0,0,0-.944.944v6.051a.944.944,0,0,0,1.887,0v-6.051A.944.944,0,0,0,33.008,388.782Z" transform="translate(-32.064 -388.782)"/></g><g transform="translate(0 0)"><path class="a" d="M62.225,97.948,58.4,96.038a.065.065,0,0,1-.036-.058V94.059a6.969,6.969,0,0,0,2.957-4.792A7.98,7.98,0,0,0,59.2,78.875a4.05,4.05,0,0,0,.172-1.168,5.006,5.006,0,0,0-9.956,0,4.048,4.048,0,0,0,.172,1.169,8.044,8.044,0,0,0-2.619,3.413c-.234-2.3-.477-5.016-.711-8.181a15.619,15.619,0,0,0-4.343-10.2,13.5,13.5,0,0,0-9.709-3.786A13.5,13.5,0,0,0,22.5,63.907a15.62,15.62,0,0,0-4.343,10.2c-.082,1.109-.165,2.16-.248,3.16h-8.9a5.993,5.993,0,0,0-5.987,5.987v.056a5,5,0,0,0,.526,2.226l.483.966v1.541A7.361,7.361,0,0,0,7.06,93.994v1.363a.4.4,0,0,1-.285.378l-3.9,1.113A3.986,3.986,0,0,0,0,100.664v7.8a.944.944,0,1,0,1.887,0v-7.8a2.091,2.091,0,0,1,1.51-2l3.9-1.113a2.241,2.241,0,0,0,.4-.159l2.391,2.391v8.686a.944.944,0,1,0,1.887,0V99.781l2.408-2.408a5.166,5.166,0,0,0,.878.317l.957.273a4.98,4.98,0,0,0-2.1,4.055v6.449a.944.944,0,1,0,1.887,0v-6.449a3.092,3.092,0,0,1,1.842-2.827l5.4-2.383a10.023,10.023,0,0,0,17.932,0l5.393,2.382a3.092,3.092,0,0,1,1.842,2.827v6.449a.944.944,0,1,0,1.887,0v-6.449a4.977,4.977,0,0,0-1.192-3.228l1.46-.73,1.1,1.042a3.967,3.967,0,0,0,5.469,0l1.1-1.042,3.152,1.576a2.071,2.071,0,0,1,1.151,1.862v6.969a.944.944,0,1,0,1.887,0V101.5A3.948,3.948,0,0,0,62.225,97.948ZM54.4,75.12a2.876,2.876,0,0,1,3.091,2.586c0,.06,0,.119-.01.178a7.995,7.995,0,0,0-6.162,0c0-.059-.01-.118-.01-.178A2.876,2.876,0,0,1,54.4,75.12ZM11.029,98.056l-2.15-2.15a2.259,2.259,0,0,0,.068-.55v-.4a6.61,6.61,0,0,0,1.868.33c.073,0,.145,0,.217,0a7.008,7.008,0,0,0,2.079-.314v.379a2.593,2.593,0,0,0,.058.56ZM10.872,93.4a5.28,5.28,0,0,1-4.95-5.359V86.279a.943.943,0,0,0-.1-.422l-.583-1.165a3.108,3.108,0,0,1-.326-1.382v-.056a4.1,4.1,0,0,1,4.1-4.1h8.134v3.917a4.119,4.119,0,0,1-.433,1.833l-.476.952a.943.943,0,0,0-.1.422V88.3A5.108,5.108,0,0,1,10.872,93.4Zm7.887,3.326-2.981-.852C15,95.653,15,95.566,15,95.356v-1.3a6.968,6.968,0,0,0,1.435-1.32,1.935,1.935,0,0,0,.684.771A20.837,20.837,0,0,0,21.4,95.56Zm13.451,3.737a8.125,8.125,0,0,1-7.237-4.418l1.374-.607a2.962,2.962,0,0,0,1.765-2.708V90.467a11.025,11.025,0,0,0,8.2,0v2.264a2.962,2.962,0,0,0,1.765,2.708l1.373.607A8.106,8.106,0,0,1,32.209,100.464ZM40.392,94.4l-1.556-.687a1.074,1.074,0,0,1-.64-.982V89.486a11.03,11.03,0,0,0,5.043-9.259V78.458A3.935,3.935,0,0,0,41.9,75.482c-1.9-1.649-6.188-4.527-13.628-5.271a.944.944,0,1,0-.188,1.878C35,72.781,38.932,75.4,40.659,76.906a2.049,2.049,0,0,1,.693,1.552v1.769a9.142,9.142,0,0,1-18.284,0v-.789a1.028,1.028,0,0,1,.538-.889,7.47,7.47,0,0,0,3.448-4.075.944.944,0,1,0-1.791-.6,5.612,5.612,0,0,1-2.6,3.036,2.933,2.933,0,0,0-1.483,2.524v.789a11.029,11.029,0,0,0,5.043,9.259v3.244a1.074,1.074,0,0,1-.64.982l-1.556.687a20.846,20.846,0,0,1-5.883-2.477.046.046,0,0,1-.023-.055c.329-1.946,1.175-7.558,1.918-17.622a13.77,13.77,0,0,1,3.786-8.994,11.649,11.649,0,0,1,8.384-3.243,11.649,11.649,0,0,1,8.384,3.243,13.77,13.77,0,0,1,3.786,8.994c.743,10.064,1.589,15.677,1.918,17.622a.046.046,0,0,1-.023.055A20.852,20.852,0,0,1,40.392,94.4Zm10.037,1.58a.065.065,0,0,1-.036.058l-2.956,1.478c-.035-.016-.069-.035-.1-.051L43.018,95.56A20.841,20.841,0,0,0,47.3,93.507a1.94,1.94,0,0,0,.858-1.954l-.022-.133a6.98,6.98,0,0,0,2.292,2.639Zm5.4,1.755a2.081,2.081,0,0,1-2.868,0l-.877-.833a1.953,1.953,0,0,0,.229-.921v-1a7.023,7.023,0,0,0,4.164,0v1a1.952,1.952,0,0,0,.229.922ZM54.4,93.4a5.1,5.1,0,0,1-5.076-4.551.944.944,0,0,0-.134-.392A6.117,6.117,0,1,1,60.2,87.179c-2.679-2.722-7.393-3.789-7.62-3.839a.944.944,0,0,0-1.147.921,2.307,2.307,0,0,1-.732,1.35.944.944,0,0,0,1.334,1.334,4.566,4.566,0,0,0,1.025-1.524c1.588.472,4.883,1.663,6.362,3.754A5.094,5.094,0,0,1,54.4,93.4Z" transform="translate(0 -60.121)"/></g><g transform="translate(58.497 42.598)"><path class="a" d="M465.88,398.692a.944.944,0,0,0-.944.944v4.8a.944.944,0,0,0,1.887,0v-4.8A.944.944,0,0,0,465.88,398.692Z" transform="translate(-464.936 -398.692)"/></g></svg>