<svg xmlns="http://www.w3.org/2000/svg" width="60.402" height="42.291" viewBox="0 0 60.402 42.291"><defs><style>.a{fill:#877a61;}</style></defs><g transform="translate(0)"><path class="a" d="M56.32,5.585C55.268,1.182,38.959,0,30.2,0S5.134,1.182,4.082,5.585a7.725,7.725,0,0,0-2.039,4.18C1.375,11.117,0,14.016,0,15.1a4.035,4.035,0,0,0,4.154,4.027,4.034,4.034,0,0,0,3.9,3.02,3.954,3.954,0,0,0,1.423-.265,4.027,4.027,0,0,0,3.61,2.278,3.954,3.954,0,0,0,1.423-.265,3.99,3.99,0,0,0,6.118,1.386c.2.672.387,1.369.533,2.1,1.936,9.68,1.993,11.807,1.993,11.883a1.007,1.007,0,0,0,.295.712A9.8,9.8,0,0,0,30.2,42.282a9.8,9.8,0,0,0,6.752-2.308,1.019,1.019,0,0,0,.295-.7c0-.086.057-2.215,1.993-11.891.146-.727.327-1.424.533-2.1a3.99,3.99,0,0,0,6.118-1.386,3.954,3.954,0,0,0,1.423.267,4.027,4.027,0,0,0,3.61-2.278,3.954,3.954,0,0,0,1.423.265,4.034,4.034,0,0,0,3.9-3.02A4.032,4.032,0,0,0,60.4,15.1c0-1.084-1.375-3.984-2.044-5.336a7.725,7.725,0,0,0-2.039-4.18ZM30.2,14.094c-12.483,0-22.809-2.233-26.127-4.491a5.218,5.218,0,0,1,.839-1.812,6.233,6.233,0,0,0,1.338.92.991.991,0,0,0,.714.341c5.289,2.323,16.5,3.028,23.237,3.028s17.919-.7,23.217-3.02a1.007,1.007,0,0,0,.761-.363,6.177,6.177,0,0,0,1.309-.906A5.218,5.218,0,0,1,56.326,9.6C53.01,11.861,42.684,14.094,30.2,14.094ZM50.227,8.031a75.483,75.483,0,0,1-17.006,2V6.085A79.217,79.217,0,0,1,50.227,8.031Zm-19.02,2.024c-.339,0-.66.011-1.007.011s-.667-.008-1.007-.011v-4c.336,0,.672-.006,1.007-.011s.671.005,1.007.011Zm-4.027-.025a75.483,75.483,0,0,1-17.006-2A79.272,79.272,0,0,1,27.181,6.085ZM30.2,2.013c15.94,0,24.161,2.819,24.161,4.027,0,.244-.354.555-1.023.895C49.286,5.28,41.3,4.182,32.23,4.05h-.116c-1.259-.042-2.575-.041-3.8,0h-.139C19.1,4.184,11.118,5.281,7.068,6.935c-.673-.34-1.028-.651-1.028-.895,0-1.208,8.221-4.027,24.161-4.027ZM18.121,24.161a2.013,2.013,0,0,1-2-1.883,1.007,1.007,0,0,0-1.688-.668,1.984,1.984,0,0,1-1.35.538,2.013,2.013,0,0,1-2-1.883A1.007,1.007,0,0,0,9.4,19.6a1.984,1.984,0,0,1-1.35.538A2.005,2.005,0,0,1,6.04,18.178c.007-.05.021-.2.021-.249A1.007,1.007,0,0,0,4.7,16.987a2,2,0,0,1-2.687-1.88,18.858,18.858,0,0,1,1.409-3.552c2.195,1.309,5.9,2.424,10.47,3.221.005,0,.006.012.011.016a24.209,24.209,0,0,1,5.95,8.334A1.982,1.982,0,0,1,18.121,24.161ZM35.265,38.769a8.324,8.324,0,0,1-5.064,1.5,8.328,8.328,0,0,1-5.064-1.5c-.094-1.066-.472-4.134-2-11.787a24.83,24.83,0,0,0-5.94-11.7,101.489,101.489,0,0,0,13.007.821,101.489,101.489,0,0,0,13.01-.821,24.829,24.829,0,0,0-5.94,11.7c-1.533,7.652-1.913,10.719-2.006,11.785ZM55.7,16.987a1.007,1.007,0,0,0-1.361.942.727.727,0,0,0,.022.191,2.013,2.013,0,0,1-2.013,2.013A1.984,1.984,0,0,1,51,19.6a1.007,1.007,0,0,0-1.688.668,2.013,2.013,0,0,1-2,1.883,1.984,1.984,0,0,1-1.35-.538,1.007,1.007,0,0,0-1.688.668,2.013,2.013,0,0,1-2,1.883,1.982,1.982,0,0,1-1.725-1.031A24.209,24.209,0,0,1,46.51,14.8c.005,0,.006-.011.011-.016,4.566-.8,8.272-1.913,10.47-3.221a18.967,18.967,0,0,1,1.4,3.54A2,2,0,0,1,55.7,16.987Z"/></g></svg>